<?xml version="1.0" standalone="no"?>
<!DOCTYPE svg PUBLIC "-//W3C//DTD SVG 1.1//EN" "http://www.w3.org/Graphics/SVG/1.1/DTD/svg11.dtd" >
<svg xmlns="http://www.w3.org/2000/svg">
<metadata>Generated by IcoMoon</metadata>
<defs>
<font id="icomoon" horiz-adv-x="1024">
<font-face units-per-em="1024" ascent="960" descent="-64" />
<missing-glyph horiz-adv-x="1024" />
<glyph unicode="&#x20;" horiz-adv-x="512" d="" />
<glyph unicode="&#xe900;" glyph-name="404" horiz-adv-x="2330" d="M475.843 960h239.332v-1024h-239.332v194.517h-475.843l181.92 665h248.113l-116.578-426.067h162.387v590.55zM1166.222 724.317c-93.365 0-169.312-80.227-169.312-178.853v-203.057c0-98.626 75.947-178.853 169.312-178.853s169.312 80.227 169.312 178.853v203.057c0 98.626-75.947 178.853-169.312 178.853zM1167.577-64c-215.107 0-390.095 184.144-390.095 410.505v202.99c0 226.361 174.988 410.505 390.095 410.505s390.095-184.144 390.095-410.505v-202.99c0-226.361-174.988-410.505-390.095-410.505zM2090.403 960h239.332v-1024h-239.332v194.517h-475.843l181.92 665h248.113l-116.578-426.067h162.387v590.55z" />
<glyph unicode="&#xe901;" horiz-adv-x="2450" d="M2435.401 161.753c-470.612-23.877-778.231-40.112-922.855-48.705-185.391-11.015-200.148-166.931-331.972-166.931-429.119 0-1018.355-45.069-1149.351 88.861s434.75 292.158 650.988 420.664c164.546 97.787 181.028 289.554 270.3 320.288 206.589 71.122 526.554 71.122 959.895 0l522.995-614.178z" />
<glyph unicode="&#xe902;" horiz-adv-x="2450" d="M2435.401 161.753c-470.612-23.877-778.231-40.112-922.855-48.705-185.391-11.015-200.148-166.931-331.972-166.931-429.119 0-1018.355-45.069-1149.351 88.861s434.75 292.158 650.988 420.664c164.546 97.787 181.028 289.554 270.3 320.288 206.589 71.122 526.554 71.122 959.895 0l522.995-614.178z" />
<glyph unicode="&#xe903;" horiz-adv-x="2450" d="M1041.363 528.21c0 0 13.215 114.509 161.58 114.509 42.232 0 139.427-20.41 291.584-61.231-87.549 54.191-139.080 106.305-154.591 156.343-55.527 179.12 18.966 273.293 154.591 174.812 288.684-209.621 386.545 34.808 494.529-174.812s530.125-576.085 402.655-626.223c-127.469-50.137-416.325-100.275-539.813-50.137s-224.568 291.369-357.372 170.753c-132.803-120.616-197.203-394.474-385.523-236.256s-67.641 532.242-67.641 532.242z" />
<glyph unicode="&#xe904;" horiz-adv-x="2450" d="M1794.098 196.455l-163.277 276.952 366.799-276.952z" />
<glyph unicode="&#xe905;" horiz-adv-x="2584" d="M2305.009 1001.714h678.181v-1318.686l-678.181 430.118z" />
<glyph unicode="&#xe906;" horiz-adv-x="2584" d="M0 960h2305.009v-849.072h-2305.009v849.072z" />
<glyph unicode="&#xe907;" horiz-adv-x="2584" d="M2452.368 18.673c-101.427 29.107-170.692 47.292-207.795 54.555s-61.885 16.487-74.347 27.675l103.467 27.993 33.223 121.099 4.381-141.833 141.071-89.488z" />
<glyph unicode="&#xe908;" horiz-adv-x="2584" d="M2452.368 18.673c-101.427 29.107-170.692 47.292-207.795 54.555s-61.885 16.487-74.347 27.675l103.467 27.993 33.223 121.099 4.381-141.833 141.071-89.488z" />
<glyph unicode="&#xe909;" horiz-adv-x="2584" d="M2306.882 248.048c0-7.471-37.534-13.527-83.834-13.527s-83.834 6.056-83.834 13.527c0 7.471 37.534 13.527 83.834 13.527s83.834-6.056 83.834-13.527z" />
<glyph unicode="&#xe90a;" horiz-adv-x="2584" d="M2214.761 209.679c-2.828 15.512-6.041 26.51-9.64 32.995-4.568 8.233-14.584 12.626-21.074 20.093-7.9 9.088-9.169 23.908-19.627 29.087-5.524 2.736-14.382 4.837-26.574 6.305 0.305-13.198 1.126-22.264 2.464-27.198 3.512-12.953 15.644-12.77 24.655-23.136 4.674-5.377 7.41-15.376 12.979-19.385 7.535-5.423 19.807-11.678 36.816-18.762z" />
<glyph unicode="&#xe90b;" horiz-adv-x="2584" d="M2214.761 209.679c-2.828 15.512-6.041 26.51-9.64 32.995-4.568 8.233-14.584 12.626-21.074 20.093-7.9 9.088-9.169 23.908-19.627 29.087-5.524 2.736-14.382 4.837-26.574 6.305 0.305-13.198 1.126-22.264 2.464-27.198 3.512-12.953 15.644-12.77 24.655-23.136 4.674-5.377 7.41-15.376 12.979-19.385 7.535-5.423 19.807-11.678 36.816-18.762z" />
<glyph unicode="&#xe90c;" horiz-adv-x="2584" d="M2228.483 209.896c1.984 23.747 1.623 41.053-1.080 51.92-3.433 13.796-16.348 24.102-22.895 37.526-7.969 16.339-3.977 38.47-17.23 50.095-7 6.14-19.126 12.651-36.379 19.531-4.762-19.388-7.138-32.944-7.128-40.667 0.026-20.277 17.843-24.723 26.933-43.359 4.715-9.667 4.771-25.329 11.335-33.346 8.881-10.846 24.362-24.746 46.445-41.7z" />
<glyph unicode="&#xe90d;" horiz-adv-x="2584" d="M2228.483 209.896c1.984 23.747 1.623 41.053-1.080 51.92-3.433 13.796-16.348 24.102-22.895 37.526-7.969 16.339-3.977 38.47-17.23 50.095-7 6.14-19.126 12.651-36.379 19.531-4.762-19.388-7.138-32.944-7.128-40.667 0.026-20.277 17.843-24.723 26.933-43.359 4.715-9.667 4.771-25.329 11.335-33.346 8.881-10.846 24.362-24.746 46.445-41.7z" />
<glyph unicode="&#xe90e;" horiz-adv-x="2584" d="M2216.948 222.123c14.096 17.101 22.136 30.515 24.119 40.24 3.032 14.871-6.003 31.78-6.29 48.225-0.315 18.058 6.755 39.681-0.244 55.726-3.751 8.601-10.643 19.523-20.674 32.766-10.753-14.473-17.773-25.314-21.058-32.523-8.266-18.138 6.846-31.915 7.202-52.325 0.235-13.455-10.72-33.083-6.775-45.421 3.738-11.689 11.644-27.252 23.719-46.688z" />
<glyph unicode="&#xe90f;" horiz-adv-x="2584" d="M2216.948 222.123c14.096 17.101 22.136 30.515 24.119 40.24 3.032 14.871-6.003 31.78-6.29 48.225-0.315 18.058 6.755 39.681-0.244 55.726-3.751 8.601-10.643 19.523-20.674 32.766-10.753-14.473-17.773-25.314-21.058-32.523-8.266-18.138 6.846-31.915 7.202-52.325 0.235-13.455-10.72-33.083-6.775-45.421 3.738-11.689 11.644-27.252 23.719-46.688z" />
<glyph unicode="&#xe910;" horiz-adv-x="2584" d="M2239.441 207.302c15.397 11.404 24.992 21.439 28.784 30.105 5.241 11.979-0.047 29.033 4.252 44.028 4.403 15.357 19.306 27.942 19.274 52.253-0.021 16.207-5.124 29.569-15.308 40.085-20.676-12.894-33.775-24.387-39.296-34.479-6.537-11.951 0.775-31.977-3.18-45.77-3.838-13.385-14.049-23.474-14.833-36.424-0.698-11.533 6.071-28.132 20.308-49.796z" />
<glyph unicode="&#xe911;" horiz-adv-x="2584" d="M2239.441 207.302c15.397 11.404 24.992 21.439 28.784 30.105 5.241 11.979-0.047 29.033 4.252 44.028 4.403 15.357 19.306 27.942 19.274 52.253-0.021 16.207-5.124 29.569-15.308 40.085-20.676-12.894-33.775-24.387-39.296-34.479-6.537-11.951 0.775-31.977-3.18-45.77-3.838-13.385-14.049-23.474-14.833-36.424-0.698-11.533 6.071-28.132 20.308-49.796z" />
<glyph unicode="&#xe912;" horiz-adv-x="2584" d="M2212.541 157.497c19.675 12.063 33.207 22.264 40.595 30.602 9.38 10.585 11.757 26.569 19.449 39.371 9.363 15.583 28.658 25.153 31.928 42.155 1.727 8.98 1.454 22.173-0.819 39.577-17.469-7.398-29.257-13.314-35.364-17.748-16.031-11.642-11.58-28.091-22.259-45.864-5.539-9.219-17.906-18.24-21.313-27.956-4.609-13.145-8.682-33.19-12.218-60.136z" />
<glyph unicode="&#xe913;" horiz-adv-x="2584" d="M2212.541 157.497c19.675 12.063 33.207 22.264 40.595 30.602 9.38 10.585 11.757 26.569 19.449 39.371 9.363 15.583 28.658 25.153 31.928 42.155 1.727 8.98 1.454 22.173-0.819 39.577-17.469-7.398-29.257-13.314-35.364-17.748-16.031-11.642-11.58-28.091-22.259-45.864-5.539-9.219-17.906-18.24-21.313-27.956-4.609-13.145-8.682-33.19-12.218-60.136z" />
<glyph unicode="&#xe914;" horiz-adv-x="2584" d="M2306.694 247.134l-29.28-140.697c0.009-0.142 0.013-0.284 0.013-0.427 0-1.108-0.267-2.194-0.779-3.25l-0.263-1.259-0.472 0.001c-5.753-8.408-27.239-14.655-52.865-14.655s-47.112 6.247-52.865 14.655l-0.472-0.001-0.264 1.262c-0.511 1.055-0.777 2.14-0.777 3.247 0 0.143 0.004 0.285 0.013 0.427l-29.277 140.69c2.933-7.042 39.26-12.607 83.643-12.607 44.397 0 80.733 5.569 83.646 12.613z" />
<glyph unicode="&#xe915;" horiz-adv-x="2584" d="M2306.694 247.134l-29.28-140.697c0.009-0.142 0.013-0.284 0.013-0.427 0-1.108-0.267-2.194-0.779-3.25l-0.263-1.259-0.472 0.001c-5.753-8.408-27.239-14.655-52.865-14.655s-47.112 6.247-52.865 14.655l-0.472-0.001-0.264 1.262c-0.511 1.055-0.777 2.14-0.777 3.247 0 0.143 0.004 0.285 0.013 0.427l-29.277 140.69c2.933-7.042 39.26-12.607 83.643-12.607 44.397 0 80.733 5.569 83.646 12.613z" />
<glyph unicode="&#xe916;" horiz-adv-x="1354" d="M1118.452 196.383l-618.837-41.576-33.927 83.052 640.073-14.619z" />
<glyph unicode="&#xe917;" horiz-adv-x="1354" d="M1118.452 196.383l-618.837-41.576-33.927 83.052 640.073-14.619z" />
<glyph unicode="&#xe918;" horiz-adv-x="1354" d="M416.406-39.047l-948.105-54.364 130.334 121.735h958.995z" />
<glyph unicode="&#xe919;" horiz-adv-x="1354" d="M416.406-39.047l-948.105-54.364 130.334 121.735h958.995z" />
<glyph unicode="&#xe91a;" horiz-adv-x="1354" d="M854.62 270.721l-1154.311-23.236v133.526l1107.9-68.813z" />
<glyph unicode="&#xe91b;" horiz-adv-x="1354" d="M854.62 270.721l-1154.311-23.236v133.526l1107.9-68.813z" />
<glyph unicode="&#xe91c;" horiz-adv-x="1354" d="M281.361 421.065c33.3-78.336 175.092-199.919 175.092-307.002-55.537 0-207.648-28.041-456.331-84.124v-70.843c344.575-12.544 548.29 1.055 611.146 40.798 33.122 150.46-9.834 348.764-128.867 594.912-61.491 58.948-113.992 98.912-157.505 119.894s-93.409 30.393-149.688 28.234c-55.908-67.599-76.652-153.732-62.233-258.398 21.629-156.999 22.99-199.485 22.56-251.425-54.785 5.702-187.159-10.55-397.121-48.758v-70.291c240.554-5.684 402.394-2.409 485.521 9.826 33.016 50.832 81.419 145.257 85.33 224.869 1.506 30.658-21.374 40.298-27.903 72.306z" />
<glyph unicode="&#xe91d;" horiz-adv-x="1354" d="M625.509 298.361c2.312-18.831 16.599-33.972 35.264-37.373l39.273-7.155c13.118-2.39 26.582-2.131 39.598 0.76l58.475 12.99c-1.325 10.793-11.149 18.469-21.943 17.143l-44.366-5.447c21.488 11.024 42.543 15.658 63.165 13.904 10.024-1.584 20.981-6.374 32.873-14.37 6.282-4.225 13.682-6.481 21.252-6.481h9.619c-22.663 23.901-37.666 37.946-45.011 42.137s-23.362 6.189-48.053 5.996l-90.622 7.854-49.525-29.958z" />
<glyph unicode="&#xe91e;" horiz-adv-x="1354" d="M860.807 815.286c-113.283-15.090-206.146-90.020-278.59-224.79 4.913-89.778 18.971-187.302 42.174-292.571l51.603 30.736c0.362 102.642-1.078 179.585-4.321 230.829 24.998 8.664 92.987 117.968 214.449 142.697 16.925 47.465 8.487 85.165-25.315 113.099z" />
<glyph unicode="&#xe91f;" horiz-adv-x="1354" d="M758.961 289.855l-55.761 2.772 28.779-13.128c4.301 2.157 8.222 3.915 11.763 5.274s8.614 3.053 15.22 5.083z" />
<glyph unicode="&#xe920;" horiz-adv-x="1354" d="M1194.828 685.63v0 0l-37.688-47.964c-3.293-4.191-9.36-4.919-13.551-1.626-1.375 1.081-2.431 2.514-3.054 4.149l-9.487 24.868-64.909-27.145c-9.835-4.113-21.142 0.525-25.255 10.36-0.651 1.557-1.095 3.193-1.321 4.865l-8.827 65.396-121.966-2.879-8.293 108.296 115.689-5.241c47.492 51.821 112.281 62.626 194.368 32.416 0.35-0.129 0.698-0.258 1.045-0.387 44.383-16.557 66.939-65.959 50.382-110.341-10.836-29.046-36.503-49.985-67.133-54.766z" />
<glyph unicode="&#xe921;" horiz-adv-x="1354" d="M1183.299 811.461c26.509 3.925 48.354-16.434 40.977-43.294-14.325-52.156 29.631-70.11 55.348-64.51 58.121 12.657 75.851 80.712 42.183 160.76s-120.611 112.778-187.556 84.62c-55.796-28.036-94.667-71.275-116.613-129.718 6.491-7.707 13.137-10.324 19.937-7.853 14.786 5.373 42.553 28.904 48.86 29.645 17.576 2.067-2.876-65.904 9.404-66.454 42.864-1.92 60.95 32.878 87.46 36.803z" />
<glyph unicode="&#xe922;" horiz-adv-x="1354" d="M1079.682 838.961c16.717 8.153 35.026 5.006 40.896-7.028s-2.923-28.401-19.64-36.554c-16.717-8.153-35.026-5.006-40.896 7.028s2.923 28.401 19.64 36.554z" />
<glyph unicode="&#xe923;" horiz-adv-x="1354" d="M1170.605 321.057l-90.269-92.922c-6.212-5.873-6.485-15.669-0.611-21.879s15.671-6.485 21.883-0.612l90.818 99.564c6.212 5.873 2.498 17.244-3.15 20.439s-14.336 0.931-18.671-4.59z" />
<glyph unicode="&#xe924;" horiz-adv-x="1354" d="M1172.121 309.94c19.159-26.37 73.82-19.318 122.089 15.751s71.867 84.876 52.708 111.246c-4.268 5.874-7.129 19.577-14.456 22.194-25.569 9.132-70.116-10.688-107.633-37.946-34.369-24.97-62.201-59.413-65.026-85.547-1.142-10.569 6.8-18.106 12.318-25.7z" />
<glyph unicode="&#xe925;" horiz-adv-x="1354" d="M1281.734 346.36c-47.65-35.907-102.179-43.911-121.796-17.88s3.109 76.243 50.758 112.149c47.65 35.907 102.179 43.911 121.796 17.88s-3.109-76.243-50.758-112.149z" />
<glyph unicode="&#xe926;" horiz-adv-x="1354" d="M1048.799 324.767l22.454-5.265c25.481-5.975 49.411-17.271 70.22-33.145l19.982-15.244 18.501 19.999-16.571-39.996c-6.266-15.125-17.182-27.863-31.168-36.373l-10.278-6.253c-6.768-4.118-15.378-3.615-21.621 1.262l-87.791 68.59 36.271 46.425z" />
<glyph unicode="&#xe927;" horiz-adv-x="1354" d="M1053.902 322.458l36.374 23.553c7.418 4.803 16.275 6.877 25.054 5.867l37.713-4.34c0.001-9.781-7.131-18.102-16.797-19.597l-10.502-1.625c-5.984-0.926-11.39-4.097-15.118-8.868l-8.157-10.44-48.567 15.45z" />
<glyph unicode="&#xe928;" horiz-adv-x="1354" d="M886.455 822.47c44.2 12.768 80.444 15.946 108.732 9.535-26.335-13.777 28.321-129.073 8.161-146.934-13.44-11.908-33.899-18.029-61.377-18.364l-55.517 155.763z" />
<glyph unicode="&#xe929;" horiz-adv-x="1354" d="M308.091 845.122c-48.267-22.071-100.191-59.866-155.772-113.385 77.709-8.2 151.288-32.385 220.737-72.556s118.696-87.031 147.74-140.579c81.344 68.444 177.342 93.779 287.994 76.005-36.466-66.887-53.177-136.826-64.367-230.386 32.891-66.959 234.632-75.317 273.381-90.516 14.991 19.188 23.497 30.918 34.54 50.781-70.892 18.723-102.301 25.826-198.077 72.526 50.877 65.123 54.509 119.473 92.824 160.546 71.64 76.796 37.575 105.097 49.759 146.764s-98.423 152.957-131.739 172.561c-36.453 21.45-329.45 86.045-557.020-31.76z" />
<glyph unicode="&#xe92a;" horiz-adv-x="1354" d="M590.026 565.084c2.227 19.534 170.733 121.902 227.136 107.373 13.981-46.465 3.382-50.372-8.844-77.564-110.248 16.9-182.196-11.707-218.292-29.809z" />
<glyph unicode="&#xe92b;" glyph-name="Background-with-color" d="M507.742 957.949c-279.372 0-505.83-226.009-505.83-504.795v0c0-51.076 7.593-100.349 21.73-146.808v0c29.957-98.505 89.271-184.244 167.736-247.095v0c39.964-31.993 84.899-58.061 133.469-76.834v0c56.459-21.891 117.822-33.934 182.005-34.030v0h0.89c279.372 0 505.83 225.982 505.83 504.767v0 0.888c-0.097 64.124-12.213 125.433-34.171 181.829v0c-18.813 48.385-44.915 93.158-76.927 132.982v0c-62.935 78.252-148.772 137.414-247.381 167.329v0c-46.611 14.163-96.099 21.767-147.351 21.767z" />
<glyph unicode="&#xe92c;" glyph-name="background-shape" horiz-adv-x="8158" d="M4079.136 960c1499.296 0 2897.998-170.917 4079.13-466.332l-0.125-557.668h-8158.008l-0.132 557.667c1181.133 295.415 2579.837 466.333 4079.136 466.333z" />
<glyph unicode="&#xe92d;" glyph-name="bcm-01" d="M1024 448c0-282.738-229.262-512-512-512s-512 229.262-512 512c0 282.809 229.262 512 512 512s512-229.191 512-512z" />
<glyph unicode="&#xe92e;" glyph-name="bcm-02" horiz-adv-x="1843" d="M47.47 691.761c-6.712 6.362-17.356 6.056-23.691-0.66-6.358-6.763-6.099-17.367 0.636-23.729 6.759-6.362 17.379-6.079 23.691 0.683 6.453 6.739 6.123 17.343-0.636 23.705zM124.219 778.030c-6.735 6.389-17.355 6.082-23.737-0.66-6.358-6.695-6.052-17.35 0.683-23.715 6.758-6.365 17.355-6.058 23.713 0.684 6.382 6.742 6.075 17.35-0.659 23.692zM205.716 864.338c-6.718 6.339-17.348 6.080-23.736-0.66-6.341-6.763-6.011-17.414 0.684-23.706 6.765-6.386 17.372-6.103 23.712 0.636 6.411 6.716 6.105 17.367-0.66 23.73zM291.725 922.253c3.093 2.565 4.924 5.681 5.585 8.916-11.319-3.428-22.488-7.047-33.567-11.050 8.617-4.866 20.567-4.195 27.983 2.133zM37.923 543.155c-6.742 6.365-17.374 6.059-23.692-0.684-6.436-6.743-6.129-17.375 0.613-23.741 6.766-6.318 17.374-6.035 23.739 0.707s6.035 17.328-0.66 23.717zM114.613 624.688c-6.695 6.334-17.304 6.004-23.717-0.753-6.365-6.687-6.059-17.33 0.684-23.687 6.766-6.357 17.351-6.051 23.693 0.683 6.412 6.734 6.082 17.377-0.66 23.758zM200.911 710.946c-6.715 6.339-17.341 6.056-23.679-0.66-6.385-6.763-6.079-17.366 0.636-23.776 6.762-6.315 17.364-6.032 23.726 0.707 6.409 6.739 6.079 17.366-0.683 23.729zM277.666 797.26c-6.691 6.291-17.341 6.055-23.749-0.73-6.338-6.691-6.032-17.341 0.683-23.679 6.762-6.409 17.364-6.055 23.726 0.636 6.385 6.762 6.079 17.341-0.66 23.774zM359.181 878.689c-6.737 6.387-17.361 6.104-23.745-0.636-6.313-6.764-6.054-17.417 0.683-23.71 6.761-6.364 17.361-6.104 23.769 0.66 6.337 6.717 6.030 17.37-0.707 23.687zM412.823 940.438c6.714-6.109 17.424-5.838 23.76 0.634 5.225 5.249 5.934 12.92 2.388 18.893-9.953 0.136-19.859-0.113-29.671-0.882-3.121-6.154-1.939-13.734 3.523-18.644zM28.314 389.748c-6.693 6.362-17.368 6.079-23.754-0.683-6.316-6.739-6.056-17.343 0.683-23.705 6.763-6.362 17.368-6.056 23.754 0.66 6.339 6.763 6.056 17.367-0.683 23.729zM114.629 471.231c-6.741 6.381-17.347 6.075-23.711-0.636-6.364-6.758-6.105-17.401 0.636-23.759 6.788-6.358 17.324-6.028 23.759 0.706 6.34 6.734 6.057 17.307-0.684 23.688zM191.345 557.532c-6.738 6.367-17.34 6.061-23.725-0.66-6.338-6.697-6.078-17.38 0.66-23.747 6.762-6.344 17.317-6.037 23.701 0.684 6.408 6.745 6.126 17.356-0.636 23.724zM277.652 643.848c-6.719 6.36-17.327 6.006-23.716-0.707-6.341-6.713-6.082-17.359 0.684-23.743 6.766-6.336 17.327-6.006 23.716 0.683 6.341 6.736 6.106 17.336-0.684 23.766zM349.64 725.337c-6.743 6.358-17.375 6.029-23.765-0.73-6.366-6.712-6.083-17.309 0.684-23.715 6.766-6.335 17.375-6.005 23.717 0.683 6.342 6.735 6.059 17.38-0.637 23.762zM426.338 811.597c-6.72 6.363-17.377 6.080-23.743-0.66-6.366-6.716-6.059-17.368 0.66-23.708 6.743-6.386 17.377-6.080 23.719 0.66 6.39 6.763 6.083 17.368-0.637 23.708zM512.638 897.888c-6.717 6.384-17.346 6.054-23.71-0.683s-6.104-17.338 0.636-23.722c6.764-6.337 17.37-6.054 23.71 0.707 6.411 6.714 6.104 17.338-0.636 23.698zM105.004 322.62c-6.688 6.426-17.308 6.050-23.69-0.683-6.358-6.732-6.075-17.325 0.636-23.681 6.758-6.403 17.379-6.050 23.76 0.683s6.052 17.325-0.706 23.681zM181.734 404.134c-6.733 6.363-17.327 6.056-23.683-0.66-6.38-6.74-6.097-17.321 0.683-23.707 6.733-6.41 17.374-6.080 23.683 0.66 6.403 6.74 6.074 17.321-0.683 23.707zM268.049 490.462c-6.71 6.339-17.329 5.985-23.686-0.707-6.357-6.716-6.098-17.343 0.636-23.753 6.781-6.339 17.423-6.032 23.733 0.73 6.404 6.692 6.075 17.32-0.683 23.729zM344.776 576.703c-6.736 6.364-17.335 6.082-23.718-0.684-6.336-6.694-6.053-17.325 0.683-23.69 6.76-6.388 17.359-6.058 23.694 0.636 6.406 6.742 6.124 17.349-0.659 23.737zM426.304 658.157c-6.72 6.431-17.331 6.101-23.721-0.612-6.343-6.737-6.060-17.36 0.684-23.744 6.744-6.336 17.331-6.077 23.721 0.73 6.39 6.737 6.060 17.313-0.684 23.626zM503.072 744.494c-6.766 6.364-17.375 6.057-23.764-0.684-6.342-6.717-6.059-17.347 0.684-23.711 6.695-6.364 17.375-6.057 23.717 0.66 6.389 6.765 6.059 17.347-0.637 23.735zM579.789 830.763c-6.721 6.386-17.381 6.080-23.725-0.66-6.391-6.693-6.085-17.345 0.66-23.708s17.405-6.080 23.749 0.66c6.32 6.763 6.037 17.368-0.684 23.708zM644.28 884.504c7.622-5.705 19.026-6.16 27.065-1.294-5.568 3.188-10.927 6.424-16.793 9.731-5.33 2.948-10.808 5.489-16.078 8.173-1.876-5.753 0.030-12.176 5.806-16.61zM172.168 250.721c-6.712 6.361-17.358 6.079-23.741-0.613-6.336-6.738-6.053-17.411 0.683-23.749 6.76-6.385 17.358-6.079 23.741 0.636 6.359 6.785 6.053 17.364-0.683 23.725zM258.455 337.033c-6.668 6.336-17.293 6.053-23.702-0.659-6.361-6.713-6.055-17.405 0.683-23.765 6.762-6.359 17.364-6.029 23.702 0.73 6.408 6.713 6.079 17.311-0.683 23.694zM335.201 423.302c-6.691 6.361-17.363 6.078-23.7-0.66-6.384-6.762-6.078-17.34 0.636-23.725 6.761-6.385 17.363-6.031 23.724 0.636 6.408 6.738 6.078 17.387-0.66 23.748zM421.543 504.795c-6.699 6.362-17.337 6.080-23.73-0.66-6.369-6.716-6.086-17.367 0.637-23.706 6.77-6.386 17.385-6.080 23.777 0.636 6.322 6.763 6.039 17.39-0.684 23.729zM498.251 591.090c-6.739 6.379-17.341 6.049-23.75-0.683-6.315-6.732-6.055-17.324 0.683-23.68 6.786-6.402 17.365-6.096 23.727 0.659s6.102 17.324-0.66 23.703zM579.782 677.381c-6.74 6.364-17.346 6.058-23.71-0.684-6.387-6.718-6.104-17.396 0.636-23.713 6.764-6.364 17.37-6.058 23.71 0.684 6.387 6.694 6.104 17.349-0.636 23.713zM656.517 758.86c-6.785 6.385-17.363 6.078-23.724-0.683-6.385-6.738-6.102-17.34 0.66-23.701 6.714-6.361 17.363-6.055 23.701 0.683 6.385 6.761 6.078 17.316-0.636 23.701zM710.634 811.748c7.345-7.155 18.811-6.81 25.772 0.768 0.768 0.874 1.484 1.828 2.073 2.809-8.215 8.162-17.224 16.456-26.694 24.83-0.64-0.556-1.305-1.086-1.868-1.722-6.987-7.605-6.577-19.504 0.717-26.685zM248.931 174.019c-6.791 6.363-17.379 6.080-23.745-0.613-6.367-6.787-6.107-17.416 0.66-23.779 6.72-6.339 17.355-6.057 23.698 0.683 6.414 6.74 6.060 17.369-0.613 23.708zM325.617 260.314c-6.714 6.361-17.338 6.078-23.699-0.66-6.384-6.714-6.101-17.362 0.636-23.723 6.761-6.361 17.362-6.078 23.746 0.683 6.337 6.738 6.078 17.315-0.683 23.699zM411.941 346.615c-6.741 6.38-17.347 6.051-23.735-0.753-6.34-6.663-6.081-17.281 0.66-23.614 6.764-6.427 17.347-6.074 23.735 0.659s6.057 17.352-0.66 23.708zM488.647 432.879c-6.696 6.387-17.329 6.081-23.742-0.66-6.319-6.764-6.036-17.346 0.684-23.709 6.743-6.363 17.353-6.081 23.719 0.683 6.413 6.717 6.083 17.346-0.66 23.686zM570.166 514.425c-6.741 6.336-17.347 6.007-23.71-0.707-6.364-6.737-6.057-17.36 0.636-23.72 6.811-6.36 17.418-6.054 23.758 0.636 6.387 6.784 6.057 17.407-0.684 23.791zM646.901 610.254c-6.692 6.361-17.366 6.079-23.705-0.613-6.362-6.809-6.103-17.387 0.636-23.772 6.763-6.361 17.39-6.055 23.752 0.683s6.056 17.317-0.683 23.701zM733.221 691.769c-6.735 6.333-17.356 6.074-23.714-0.683-6.358-6.733-6.099-17.375 0.659-23.731 6.735-6.357 17.356-6.027 23.667 0.659 6.453 6.78 6.123 17.398-0.612 23.755zM786.877 744.926c5.249-5.89 12.64-6.909 18.736-3.483-5.814 10.335-12.404 20.953-19.677 31.6-6.049-8.098-5.696-20.557 0.942-28.117zM325.594 106.887c-6.692 6.407-17.343 6.1-23.706-0.66-6.362-6.689-6.056-17.359 0.683-23.695 6.716-6.36 17.391-6.077 23.729 0.66 6.362 6.736 6.056 17.336-0.707 23.695zM402.336 193.204c-6.715 6.357-17.365 6.075-23.703-0.659-6.385-6.711-6.079-17.33 0.66-23.758 6.715-6.358 17.318-6.004 23.703 0.73 6.362 6.711 6.126 17.33-0.66 23.688zM479.093 279.501c-6.743 6.363-17.376 6.057-23.741-0.707-6.342-6.717-6.106-17.346 0.66-23.686 6.743-6.363 17.376-6.057 23.741 0.613 6.342 6.811 6.059 17.417-0.66 23.78zM565.415 360.995c-6.765 6.36-17.349 6.053-23.76-0.683-6.341-6.736-6.082-17.336 0.684-23.743 6.789-6.36 17.349-6.006 23.69 0.73 6.412 6.736 6.082 17.336-0.613 23.695zM642.129 447.31c-6.743 6.339-17.376 6.009-23.766-0.707-6.319-6.74-6.059-17.369 0.684-23.731 6.72-6.363 17.376-6.033 23.766 0.707 6.342 6.716 6.012 17.345-0.684 23.731zM723.659 533.581c-6.739 6.335-17.342 6.053-23.752-0.683-6.362-6.736-6.079-17.381 0.683-23.739 6.715-6.359 17.342-6.029 23.704 0.683 6.386 6.736 6.056 17.357-0.636 23.739zM800.368 615.053c-6.769 6.366-17.335 6.060-23.798-0.613-6.274-6.767-6.014-17.402 0.731-23.721 6.722-6.414 17.359-6.131 23.727 0.613s6.061 17.378-0.66 23.721zM392.75 39.843c-6.736 6.342-17.359 5.988-23.718-0.684-6.359-6.743-6.077-17.351 0.659-23.787 6.76-6.295 17.359-6.035 23.695 0.731 6.407 6.695 6.124 17.351-0.636 23.74zM479.076 126.1c-6.717 6.337-17.347 6.078-23.735-0.683-6.34-6.737-6.081-17.338 0.66-23.699 6.764-6.408 17.347-6.054 23.735 0.66 6.387 6.69 6.057 17.385-0.66 23.722zM555.801 212.386c-6.766 6.363-17.374 6.057-23.715-0.683-6.388-6.74-6.082-17.346 0.66-23.756 6.719-6.293 17.35-6.033 23.715 0.731 6.365 6.74 6.082 17.346-0.66 23.709zM642.117 293.879c-6.765 6.364-17.349 6.057-23.713-0.684-6.388-6.67-6.082-17.347 0.636-23.711 6.742-6.364 17.396-6.057 23.737 0.66 6.364 6.765 6.082 17.371-0.66 23.735zM718.853 380.159c-6.766 6.386-17.374 6.056-23.715-0.683-6.388-6.693-6.106-17.32 0.636-23.707 6.766-6.363 17.374-6.056 23.715 0.683 6.412 6.74 6.058 17.368-0.636 23.707zM790.79 466.441c-6.768 6.361-17.38 6.079-23.794-0.613-6.296-6.785-6.037-17.387 0.731-23.772 6.744-6.361 17.356-6.055 23.699 0.683 6.391 6.738 6.060 17.364-0.637 23.701zM854.422 547.355c-6.498-6.768-6.138-17.441 0.695-23.831 4.604-4.307 10.957-5.49 16.64-3.834-1.199 10.318-2.038 21.228-3.021 32.729-5.107 0.568-10.454-1.065-14.314-5.064zM469.482-27.299c-6.717 6.358-17.347 6.052-23.711-0.683s-6.105-17.331 0.636-23.737c6.765-6.358 17.395-6.028 23.759 0.73 6.34 6.711 6.057 17.331-0.684 23.689zM546.198 58.993c-6.717 6.34-17.347 6.058-23.711-0.684s-6.081-17.348 0.636-23.712c6.788-6.364 17.371-6.081 23.758 0.66 6.364 6.765 6.057 17.348-0.684 23.735zM632.538 140.455c-6.718 6.388-17.349 6.082-23.736-0.636s-6.058-17.373 0.66-23.737c6.765-6.364 17.396-6.058 23.713 0.684 6.388 6.742 6.081 17.349-0.636 23.69zM709.245 226.798c-6.726 6.339-17.345 6.009-23.741-0.731-6.325-6.693-6.065-17.369 0.661-23.708 6.749-6.363 17.44-6.033 23.741 0.683 6.372 6.716 6.089 17.369-0.661 23.755zM790.746 313.024c-6.693 6.36-17.368 6.125-23.707-0.612-6.363-6.761-6.056-17.338 0.636-23.745 6.81-6.36 17.391-6.078 23.73 0.66 6.41 6.737 6.103 17.338-0.66 23.698zM867.501 394.538c-6.77 6.378-17.385 6.072-23.753-0.683-6.322-6.708-6.062-17.346 0.66-23.724 6.77-6.355 17.385-6.025 23.753 0.73 6.369 6.731 6.062 17.299-0.66 23.677zM622.941-8.129c-6.717 6.364-17.37 6.057-23.71-0.684-6.411-6.741-6.081-17.347 0.636-23.711 6.741-6.364 17.37-6.057 23.758 0.66 6.34 6.765 6.034 17.371-0.683 23.735zM699.641 73.393c-6.67 6.339-17.345 6.009-23.732-0.683-6.34-6.763-6.033-17.414 0.66-23.753 6.787-6.362 17.393-6.033 23.756 0.707 6.363 6.716 6.080 17.344-0.683 23.73zM785.975 159.639c-6.719 6.361-17.328 6.102-23.741-0.683-6.342-6.667-6.059-17.34 0.66-23.701 6.766-6.361 17.399-6.055 23.741 0.683 6.389 6.738 6.059 17.34-0.66 23.701zM862.706 245.935c-6.716 6.357-17.366 6.075-23.752-0.659-6.339-6.758-6.056-17.353 0.683-23.687 6.763-6.428 17.366-6.098 23.705 0.636 6.386 6.71 6.103 17.353-0.636 23.71zM944.233 327.441c-6.789 6.357-17.397 6.051-23.786-0.683-6.294-6.757-6.035-17.376 0.707-23.686 6.766-6.428 17.35-6.074 23.715 0.659 6.388 6.687 6.082 17.305-0.636 23.709zM1011.536 384.699c-4.675 1.582-9.327 3.236-13.834 4.986 0.144-0.168 0.288-0.36 0.432-0.503 3.764-3.523 8.632-4.986 13.403-4.482zM776.414 6.23c-6.785 6.359-17.362 6.124-23.77-0.683-6.361-6.666-6.054-17.336 0.707-23.695 6.69-6.36 17.362-6.053 23.675 0.683 6.361 6.736 6.125 17.359-0.612 23.695zM853.108 92.539c-6.769 6.38-17.358 6.051-23.726-0.706-6.368-6.663-6.061-17.328 0.637-23.685 6.769-6.38 17.382-6.051 23.749 0.683s6.085 17.328-0.66 23.709zM939.441 174.032c-6.789 6.342-17.397 6.083-23.809-0.66-6.294-6.767-5.988-17.353 0.731-23.719 6.742-6.366 17.35-6.083 23.691 0.637 6.412 6.767 6.105 17.4-0.613 23.742zM1011.353 260.283c-6.741 6.407-17.348 6.101-23.759-0.612-6.341-6.737-6.011-17.384 0.684-23.744 6.765-6.36 17.372-6.077 23.759 0.73 6.341 6.69 6.058 17.313-0.684 23.626zM1097.644 346.599c-6.691 6.357-17.317 6.098-23.702-0.683-6.361-6.757-6.079-17.328 0.683-23.684 6.762-6.404 17.388-6.051 23.702 0.636 6.385 6.733 6.079 17.375-0.683 23.731zM843.526-60.863c-6.761 6.364-17.338 6.058-23.746-0.66-6.337-6.694-6.078-17.301 0.683-23.735 6.737-6.34 17.362-6.081 23.699 0.684 6.384 6.741 6.101 17.348-0.636 23.712zM929.856 25.435c-6.765 6.357-17.372 6.051-23.737-0.706-6.364-6.71-6.105-17.352 0.66-23.709s17.372-6.027 23.713 0.659c6.388 6.734 6.058 17.399-0.636 23.756zM1006.594 106.907c-6.784 6.38-17.385 6.074-23.792-0.659-6.337-6.733-6.030-17.326 0.707-23.682 6.761-6.427 17.361-6.097 23.722 0.659 6.36 6.733 6.054 17.35-0.636 23.682zM1088.093 193.171c-6.761 6.409-17.385 6.103-23.722-0.636-6.384-6.763-6.101-17.343 0.66-23.729 6.737-6.339 17.362-6.056 23.722 0.66 6.36 6.787 6.054 17.39-0.66 23.706zM1164.787 279.501c-6.739 6.36-17.366 6.054-23.705-0.683-6.362-6.714-6.079-17.338 0.636-23.722 6.763-6.36 17.39-6.054 23.752 0.707 6.362 6.69 6.079 17.338-0.683 23.698zM1246.782 339.095c-8 1.366-16 2.756-23.977 4.051 0.736-1.151 1.54-2.277 2.552-3.26 6-5.92 15.195-6.112 21.425-0.791zM996.954-46.459c-6.716 6.315-17.343 6.056-23.729-0.683-6.315-6.739-6.080-17.414 0.66-23.705 6.786-6.409 17.39-6.079 23.729 0.66 6.386 6.763 6.103 17.343-0.66 23.729zM1083.249 39.815c-6.739 6.356-17.319 6.050-23.68-0.683-6.409-6.709-6.056-17.326 0.66-23.706 6.715-6.356 17.366-6.097 23.704 0.659 6.385 6.78 6.103 17.373-0.683 23.73zM1160.003 126.097c-6.712 6.364-17.357 6.057-23.716-0.684-6.359-6.694-6.1-17.347 0.683-23.711 6.712-6.364 17.333-6.057 23.716 0.66 6.359 6.717 6.053 17.371-0.683 23.735zM1241.538 212.379c-6.716 6.36-17.39 6.078-23.705-0.683-6.386-6.667-6.127-17.338 0.636-23.722 6.763-6.36 17.366-6.031 23.752 0.707 6.339 6.69 6.032 17.338-0.683 23.698zM1318.255 293.865c-6.74 6.361-17.367 6.079-23.753-0.613-6.339-6.762-6.033-17.411 0.683-23.772 6.763-6.361 17.367-6.055 23.753 0.683 6.339 6.738 6.056 17.364-0.683 23.701zM1159.96-27.301c-6.698 6.357-17.312 6.051-23.68-0.659-6.368-6.757-6.062-17.351 0.66-23.731 6.746-6.357 17.383-6.098 23.704 0.706 6.415 6.733 6.109 17.328-0.684 23.684zM1231.939 58.985c-6.738 6.341-17.364 6.082-23.726-0.684-6.361-6.694-6.079-17.349 0.66-23.714 6.786-6.364 17.388-6.058 23.749 0.684 6.361 6.694 6.032 17.349-0.683 23.714zM1308.687 140.458c-6.741 6.402-17.394 6.073-23.758-0.683-6.364-6.732-6.057-17.348 0.684-23.703s17.394-6.049 23.711 0.706c6.364 6.732 6.081 17.301-0.636 23.679zM1394.963 226.767c-6.737 6.358-17.314 6.076-23.721-0.73-6.36-6.664-6.054-17.261 0.683-23.643 6.784-6.405 17.384-6.076 23.721 0.659 6.384 6.711 6.054 17.332-0.683 23.714zM1467.367 283.583c-7.992 3.068-16.007 5.968-23.977 8.701 0.786-2.613 2.043-4.962 4.041-6.999 5.568-5.537 13.852-6.088 19.936-1.702zM1308.644-17.719c-6.719 6.364-17.35 6.057-23.692-0.66-6.388-6.717-6.082-17.371 0.636-23.735 6.742-6.364 17.374-6.057 23.739 0.684s6.082 17.347-0.684 23.711zM1385.397 63.744c-6.761 6.403-17.362 6.097-23.746-0.636-6.337-6.779-6.078-17.395 0.683-23.704 6.737-6.403 17.362-6.073 23.699 0.659 6.384 6.732 6.101 17.372-0.636 23.68zM1462.124 150.026c-6.735 6.429-17.357 6.076-23.739-0.612-6.382-6.735-6.053-17.402 0.683-23.737 6.759-6.382 17.357-6.076 23.692 0.73 6.382 6.664 6.1 17.285-0.636 23.619zM1548.395 236.36c-6.691 6.336-17.317 6.077-23.702-0.707-6.338-6.713-6.079-17.313 0.683-23.719 6.715-6.36 17.317-6.006 23.702 0.707 6.409 6.713 6.079 17.289-0.683 23.719zM1462.113-3.352c-6.741 6.364-17.324 6.105-23.711-0.684-6.387-6.671-6.081-17.372 0.636-23.665 6.764-6.388 17.394-6.105 23.758 0.636 6.34 6.741 6.057 17.372-0.684 23.712zM1538.827 82.962c-6.719 6.34-17.329 6.058-23.695-0.684-6.389-6.741-6.106-17.371 0.684-23.712 6.719-6.364 17.329-6.081 23.695 0.66 6.389 6.741 6.036 17.371-0.684 23.735zM1625.132 169.256c-6.716 6.336-17.343 6.054-23.729-0.707-6.315-6.713-6.056-17.313 0.66-23.719 6.786-6.36 17.413-6.030 23.728 0.707 6.409 6.69 6.103 17.36-0.66 23.719zM1615.542 15.848c-6.738 6.342-17.364 6.059-23.726-0.684-6.338-6.743-6.055-17.376 0.707-23.718 6.715-6.366 17.317-6.059 23.679 0.66 6.409 6.696 6.102 17.352-0.66 23.741zM1692.295 102.138c-6.697 6.339-17.355 6.056-23.721-0.683s-6.107-17.344 0.684-23.754c6.744-6.316 17.331-6.033 23.721 0.707 6.343 6.716 6.036 17.368-0.684 23.731zM1682.677-51.27c-6.696 6.337-17.33 6.078-23.72-0.683-6.343-6.738-6.060-17.339 0.684-23.7 6.767-6.361 17.401-6.102 23.72 0.66 6.413 6.738 6.036 17.362-0.684 23.723zM1769.010 30.221c-6.698 6.364-17.334 6.058-23.725-0.684-6.368-6.742-6.061-17.349 0.66-23.69 6.745-6.388 17.405-6.082 23.749 0.636 6.344 6.765 6.061 17.373-0.684 23.737zM1836.133-36.899c-6.761 6.362-17.338 6.079-23.699-0.683-6.361-6.739-6.101-17.343 0.636-23.705 6.785-6.362 17.362-6.056 23.746 0.66 6.361 6.763 6.078 17.367-0.683 23.729z" />
<glyph unicode="&#xe92f;" glyph-name="bcm-03" horiz-adv-x="1169" d="M49.48 952.14c-5.895 5.603-15.331 5.311-20.975-0.604-5.603-5.977-5.332-15.391 0.583-20.994 5.999-5.623 15.372-5.332 20.996 0.625 5.624 5.936 5.374 15.329-0.604 20.973zM41.037 816.532c-6.003 5.625-15.342 5.354-20.991-0.583-5.607-5.979-5.378-15.333 0.584-20.978 5.941-5.604 15.342-5.375 20.97 0.604 5.628 5.958 5.378 15.333-0.563 20.957zM117.335 892.779c-5.996 5.621-15.345 5.413-21.008-0.604-5.622-5.891-5.351-15.322 0.625-20.943 5.913-5.621 15.345-5.35 20.925 0.604 5.622 5.954 5.413 15.343-0.541 20.943zM185.121 969.062c-5.982 5.639-15.342 5.348-20.97-0.624-5.628-5.889-5.357-15.316 0.563-20.934 5.982-5.639 15.363-5.348 20.991 0.603s5.378 15.316-0.584 20.955zM41.027 685.19c-5.982 5.625-15.361 5.354-20.989-0.604-5.607-5.958-5.357-15.332 0.584-20.957 5.982-5.625 15.361-5.354 20.989 0.583 5.628 5.979 5.357 15.353-0.584 20.978zM108.854 757.214c-5.977 5.642-15.327 5.351-21.012-0.625-5.602-5.892-5.352-15.324 0.625-20.945 5.956-5.601 15.348-5.351 20.949 0.604 5.623 5.955 5.373 15.324-0.562 20.966zM176.652 833.48c-5.976 5.625-15.324 5.354-20.988-0.583-5.601-5.916-5.372-15.291 0.604-20.978 5.955-5.604 15.345-5.375 20.946 0.604 5.643 5.958 5.393 15.333-0.562 20.957zM252.954 909.754c-5.979 5.619-15.354 5.348-20.98-0.624-5.625-5.931-5.396-15.337 0.583-20.955s15.354-5.327 20.959 0.583c5.646 5.952 5.354 15.378-0.563 20.997zM32.56 549.609c-6.003 5.623-15.342 5.352-20.991-0.604-5.607-5.956-5.378-15.328 0.584-20.931 5.982-5.665 15.363-5.373 20.97 0.541 5.649 5.998 5.357 15.37-0.563 20.993zM100.345 621.629c-5.919 5.624-15.338 5.353-20.965-0.542-5.627-5.978-5.356-15.394 0.604-21.018 5.939-5.624 15.338-5.353 20.965 0.625 5.627 5.937 5.356 15.31-0.604 20.934zM176.627 697.917c-5.96 5.603-15.296 5.332-20.964-0.604-5.626-5.915-5.335-15.35 0.583-20.932 5.981-5.686 15.358-5.395 20.984 0.562s5.376 15.33-0.604 20.974zM244.465 774.193c-5.96 5.557-15.38 5.349-21.006-0.604-5.606-5.952-5.314-15.36 0.604-21 5.981-5.599 15.359-5.349 20.986 0.604 5.648 5.952 5.335 15.36-0.584 21zM312.258 846.21c-5.936 5.582-15.328 5.352-20.973-0.604-5.582-5.956-5.373-15.391 0.583-20.952 5.998-5.665 15.37-5.373 20.973 0.583 5.644 5.977 5.394 15.328-0.583 20.972zM388.528 922.463c-5.956 5.618-15.307 5.347-20.93-0.603-5.665-5.93-5.352-15.314 0.583-20.952 5.935-5.618 15.348-5.389 20.951 0.583 5.644 5.992 5.394 15.355-0.604 20.973zM28.512 384.559c6.176 5.899 5.855 15.341-0.666 20.969-6.589 5.628-16.944 5.419-23.097-0.604-0.597-0.5-1.010-1.105-1.469-1.709 2.755-7.671 5.533-15.237 8.472-22.574 5.74-1.647 12.329-0.396 16.76 3.919zM96.153 481.817c-5.983 5.625-15.385 5.354-20.993-0.604-5.629-5.958-5.399-15.333 0.584-20.959 5.962-5.625 15.343-5.354 20.951 0.604 5.649 5.958 5.358 15.333-0.542 20.959zM168.144 558.096c-5.916 5.626-15.289 5.314-20.954-0.604-5.624-5.981-5.353-15.337 0.604-21.005 5.936-5.585 15.351-5.314 20.954 0.625 5.645 5.939 5.374 15.337-0.604 20.984zM235.98 630.087c-5.941 5.642-15.322 5.393-20.972-0.583-5.608-5.955-5.378-15.345 0.584-20.987 5.962-5.58 15.385-5.33 20.972 0.645 5.629 5.955 5.378 15.324-0.584 20.925zM312.272 706.36c-5.958 5.644-15.292 5.374-20.959-0.604-5.646-5.957-5.375-15.309 0.563-20.932 5.979-5.644 15.396-5.353 20.98 0.562 5.625 5.978 5.375 15.35-0.583 20.974zM380.094 782.641c-5.976 5.622-15.346 5.352-21.010-0.604-5.58-5.955-5.351-15.368 0.625-20.948 5.955-5.622 15.346-5.372 20.968 0.541 5.622 5.976 5.351 15.388-0.583 21.011zM456.328 863.143c-5.92 5.618-15.301 5.348-20.929-0.583-5.628-5.972-5.357-15.336 0.584-20.975 5.962-5.618 15.363-5.389 20.95 0.624 5.67 5.951 5.399 15.315-0.605 20.933zM519.946 939.406c-5.956 5.604-15.347 5.375-20.97-0.604-5.622-5.917-5.373-15.334 0.583-20.959 5.997-5.625 15.368-5.354 20.991 0.604 5.622 5.917 5.331 15.334-0.604 20.959zM87.665 346.203c-6.002 5.659-15.38 5.389-21.006-0.541-5.585-5.951-5.377-15.376 0.584-20.994 6.002-5.618 15.38-5.347 21.006 0.603 5.585 5.951 5.356 15.314-0.584 20.932zM163.917 422.454c-5.964 5.677-15.305 5.407-20.977-0.541-5.588-6.010-5.359-15.368 0.605-20.983s15.347-5.345 20.977 0.603c5.63 5.948 5.359 15.306-0.605 20.921zM227.511 494.543c-5.973 5.625-15.296 5.333-20.999-0.667-5.598-5.896-5.349-15.333 0.624-20.958 5.952-5.562 15.317-5.291 20.957 0.604 5.619 5.958 5.369 15.395-0.583 21.020zM303.8 570.812c-5.973 5.622-15.339 5.31-20.98-0.625-5.62-5.955-5.37-15.305 0.604-20.99 5.953-5.601 15.339-5.289 20.959 0.604 5.62 5.976 5.37 15.347-0.583 21.011zM371.622 647.068c-5.974 5.619-15.34 5.349-20.981-0.666-5.641-5.89-5.37-15.297 0.604-20.917 5.932-5.619 15.34-5.328 20.94 0.583 5.662 5.952 5.349 15.36-0.562 21zM447.927 719.087c-6.015 5.622-15.361 5.351-21.023-0.604-5.62-5.955-5.329-15.324 0.624-20.946 5.932-5.622 15.34-5.393 20.96 0.583s5.349 15.345-0.562 20.967zM515.693 795.363c-5.959 5.6-15.336 5.35-20.962-0.625-5.626-5.954-5.355-15.343 0.604-20.964 5.939-5.621 15.336-5.33 20.941 0.625 5.647 5.912 5.397 15.343-0.583 20.964zM587.741 871.612c-5.938 5.625-15.335 5.354-20.94-0.583-5.646-5.937-5.376-15.353 0.563-20.978 5.959-5.625 15.356-5.354 20.981 0.604s5.376 15.332-0.604 20.957zM655.578 943.612c-5.976 5.659-15.345 5.388-20.988-0.562-5.601-5.992-5.372-15.375 0.604-20.95 5.955-5.659 15.345-5.368 20.946 0.583 5.643 5.95 5.393 15.354-0.562 20.93zM155.422 286.923c-5.937 5.619-15.312 5.349-20.978-0.604-5.562-5.994-5.333-15.38 0.604-20.999 6-5.557 15.374-5.328 21.020 0.604 5.625 5.952 5.312 15.38-0.646 20.999zM223.244 363.136c-5.954 5.679-15.28 5.408-20.943-0.541-5.642-5.949-5.371-15.309 0.604-20.988 5.975-5.616 15.322-5.346 20.943 0.666 5.662 5.887 5.35 15.247-0.604 20.863zM295.298 435.248c-5.961 5.587-15.298 5.295-20.946-0.605-5.648-5.962-5.356-15.405 0.584-20.97 5.94-5.628 15.382-5.399 20.967 0.542 5.627 5.962 5.377 15.363-0.604 21.033zM363.132 511.471c-5.958 5.642-15.353 5.35-20.977-0.604s-5.354-15.343 0.583-20.964c5.979-5.621 15.353-5.33 20.977 0.604 5.625 5.892 5.375 15.343-0.583 20.964zM439.423 587.744c-5.958 5.621-15.353 5.35-20.999-0.604-5.583-5.954-5.354-15.342 0.604-20.963 5.979-5.641 15.374-5.329 20.957 0.583 5.645 5.995 5.396 15.342-0.562 20.983zM507.227 659.763c-5.952 5.622-15.338 5.372-20.978-0.604-5.598-5.935-5.369-15.326 0.604-20.948 5.952-5.622 15.359-5.372 20.978 0.604 5.619 5.955 5.349 15.326-0.604 20.948zM583.501 736.044c-5.915 5.62-15.309 5.329-20.954-0.604-5.624-5.932-5.374-15.299 0.625-20.961 5.915-5.62 15.351-5.391 20.954 0.624 5.624 5.953 5.332 15.341-0.625 20.94zM647.068 812.256c-5.914 5.68-15.326 5.389-20.948-0.541-5.622-5.992-5.372-15.376 0.625-20.994 5.935-5.597 15.305-5.347 20.948 0.603s5.331 15.335-0.625 20.932zM723.383 884.31c-5.958 5.625-15.311 5.396-20.957-0.604-5.645-5.896-5.375-15.354 0.562-20.916 5.979-5.646 15.374-5.396 20.998 0.562 5.604 5.958 5.354 15.354-0.604 20.958zM791.185 960.598c-5.939 5.604-15.316 5.354-20.942-0.604-5.647-5.958-5.397-15.353 0.604-20.957 5.939-5.625 15.316-5.375 20.942 0.583 5.647 5.958 5.335 15.353-0.604 20.978zM223.285 227.622c-5.978 5.578-15.35 5.349-21.015-0.604-5.582-5.952-5.353-15.38 0.625-20.937 5.957-5.682 15.329-5.39 20.974 0.541 5.603 6.015 5.353 15.339-0.583 21zM291.042 299.632c-5.921 5.622-15.304 5.351-20.933-0.604s-5.358-15.387 0.563-20.967c5.984-5.622 15.387-5.33 20.975 0.562 5.65 5.955 5.4 15.387-0.605 21.008zM358.883 375.901c-5.93 5.616-15.313 5.346-20.973-0.603-5.618-5.949-5.347-15.309 0.583-20.987 5.951-5.616 15.376-5.325 20.973 0.666 5.638 5.949 5.389 15.309-0.583 20.925zM430.927 452.147c-5.913 5.62-15.303 5.391-20.966-0.604-5.58-5.953-5.393-15.32 0.604-20.961 5.955-5.62 15.366-5.329 20.966 0.624 5.642 5.953 5.351 15.32-0.604 20.94zM498.741 524.199c-5.958 5.618-15.353 5.327-20.977-0.603-5.604-5.951-5.333-15.335 0.583-20.953 5.979-5.68 15.373-5.347 20.977 0.603 5.666 5.972 5.374 15.314-0.583 20.953zM575.030 600.449c-5.954 5.625-15.281 5.354-20.944-0.583-5.642-5.958-5.392-15.395 0.604-20.978 5.954-5.625 15.323-5.354 20.944 0.604s5.371 15.332-0.604 20.957zM642.825 676.689c-5.933 5.64-15.321 5.411-20.921-0.604-5.641-5.911-5.392-15.297 0.562-20.937 5.974-5.619 15.342-5.349 20.984 0.604 5.621 5.952 5.371 15.318-0.625 20.937zM714.921 748.73c-5.956 5.623-15.349 5.373-20.993-0.542-5.623-5.998-5.352-15.371 0.604-20.973 5.977-5.665 15.37-5.394 20.951 0.562 5.644 5.977 5.373 15.35-0.562 20.952zM782.693 825.013c-5.931 5.618-15.336 5.348-20.955-0.603s-5.348-15.378 0.603-20.975c5.951-5.577 15.357-5.369 20.955 0.583 5.639 5.972 5.39 15.378-0.603 20.996zM858.989 901.28c-5.956 5.605-15.347 5.355-20.97-0.604-5.602-5.96-5.352-15.357 0.625-20.963 5.935-5.626 15.306-5.355 20.928 0.583 5.664 5.918 5.393 15.336-0.583 20.983zM926.826 977.546c-5.919 5.603-15.339 5.353-20.966-0.604s-5.398-15.33 0.604-20.995c5.96-5.582 15.318-5.332 20.966 0.625 5.606 5.936 5.335 15.35-0.604 20.974zM282.604 168.288c-5.978 5.621-15.308 5.35-20.973-0.604-5.623-5.954-5.374-15.322 0.604-20.943 5.936-5.621 15.329-5.392 20.953 0.541 5.644 6.016 5.353 15.385-0.583 21.005zM358.884 240.314c-5.914 5.623-15.326 5.352-20.949-0.604-5.643-5.956-5.393-15.39 0.604-20.972 5.935-5.623 15.306-5.331 20.949 0.625 5.622 5.956 5.352 15.328-0.604 20.951zM422.478 316.577c-5.974 5.625-15.321 5.354-20.984-0.604-5.621-5.958-5.371-15.333 0.583-20.958 5.974-5.625 15.363-5.354 20.984 0.604s5.35 15.333-0.583 20.959zM498.776 392.839c-5.98 5.622-15.357 5.351-21.024-0.562-5.584-5.997-5.334-15.367 0.625-21.010 5.959-5.622 15.357-5.331 20.941 0.625 5.668 5.955 5.376 15.325-0.542 20.947zM566.532 464.864c-5.912 5.624-15.302 5.353-20.944-0.542-5.6-6.019-5.371-15.351 0.583-21.016 5.954-5.624 15.364-5.353 21.006 0.604 5.6 5.957 5.35 15.33-0.645 20.954zM634.357 541.162c-5.914 5.604-15.285 5.312-20.949-0.646-5.622-5.937-5.373-15.333 0.604-20.916 5.935-5.667 15.368-5.375 20.949 0.562 5.643 5.958 5.373 15.375-0.604 21zM710.654 617.406c-5.955 5.646-15.326 5.313-20.927-0.604-5.643-5.979-5.414-15.333 0.541-20.938 5.997-5.646 15.409-5.396 20.99 0.563 5.622 5.958 5.372 15.333-0.604 20.979zM778.459 689.45c-5.934 5.577-15.324 5.348-20.946-0.624-5.601-5.931-5.393-15.358 0.562-20.956 5.996-5.639 15.366-5.348 20.987 0.583 5.663 5.952 5.351 15.358-0.604 20.997zM850.524 765.682c-5.933 5.645-15.323 5.353-20.965-0.583-5.621-5.936-5.371-15.33 0.604-20.954s15.364-5.395 20.923 0.583c5.663 5.936 5.413 15.33-0.562 20.954zM918.325 841.959c-5.918 5.601-15.317 5.372-20.965-0.604-5.606-5.955-5.356-15.325 0.604-20.947 5.981-5.622 15.38-5.393 20.965 0.583 5.668 5.955 5.335 15.346-0.604 20.967zM994.63 913.983c-5.92 5.625-15.321 5.354-20.969-0.604-5.628-5.958-5.357-15.334 0.584-20.938 5.961-5.646 15.383-5.375 20.99 0.563 5.607 5.979 5.357 15.355-0.604 20.98zM350.422 104.733c-5.976 5.622-15.325 5.351-20.968-0.604-5.664-5.955-5.351-15.326 0.583-20.948 5.976-5.622 15.346-5.393 20.947 0.604 5.643 5.955 5.393 15.326-0.562 20.948zM418.203 180.985c-5.916 5.619-15.332 5.39-20.935-0.603-5.645-5.952-5.374-15.337 0.583-20.956 5.937-5.619 15.332-5.327 20.956 0.562 5.645 5.952 5.374 15.316-0.604 20.998zM490.279 257.26c-5.934 5.625-15.346 5.354-20.948-0.604-5.643-5.958-5.414-15.333 0.583-20.959 5.934-5.625 15.326-5.354 20.968 0.604 5.601 5.958 5.351 15.333-0.604 20.959zM558.097 329.29c-5.972 5.623-15.357 5.352-20.976-0.604s-5.39-15.328 0.624-20.972c5.91-5.623 15.316-5.331 20.934 0.625 5.639 5.956 5.348 15.328-0.583 20.951zM634.363 405.588c-5.933 5.557-15.323 5.349-20.964-0.666-5.6-5.89-5.371-15.317 0.604-20.936s15.364-5.349 20.985 0.604c5.6 5.952 5.35 15.359-0.625 20.999zM702.191 481.823c-5.955 5.617-15.325 5.347-20.989-0.603-5.601-5.95-5.351-15.375 0.625-20.993 5.955-5.617 15.325-5.285 20.926 0.603 5.664 6.013 5.393 15.313-0.562 20.993zM770.009 558.075c-5.954 5.641-15.323 5.35-20.986-0.583-5.621-5.974-5.351-15.341 0.625-21.003 5.954-5.578 15.303-5.329 20.945 0.624s5.351 15.362-0.583 20.961zM842.044 630.081c-5.934 5.664-15.345 5.373-20.966-0.541-5.621-5.956-5.351-15.369 0.583-20.991 5.975-5.623 15.386-5.373 20.966 0.646 5.663 5.935 5.372 15.285-0.583 20.887zM909.859 706.406c-5.91 5.598-15.316 5.307-20.955-0.645-5.619-5.931-5.39-15.317 0.583-20.956 5.972-5.619 15.337-5.348 20.955 0.624 5.66 5.931 5.369 15.296-0.583 20.977zM986.168 782.646c-5.959 5.606-15.357 5.356-21.004-0.604-5.584-5.96-5.355-15.338 0.604-20.964 5.98-5.627 15.357-5.356 20.962 0.604 5.668 5.897 5.355 15.317-0.563 20.964zM1053.956 854.66c-5.976 5.623-15.324 5.373-20.946-0.604-5.622-5.956-5.393-15.328 0.562-20.952 5.996-5.623 15.345-5.352 20.988 0.583 5.622 5.977 5.372 15.349-0.604 20.972zM409.726 45.414c-5.933 5.625-15.259 5.354-20.921-0.604-5.641-5.958-5.412-15.333 0.562-20.959s15.363-5.354 20.984 0.604c5.621 5.958 5.35 15.333-0.625 20.959zM486.034 121.68c-5.954 5.623-15.342 5.352-20.983-0.604-5.6-5.956-5.35-15.349 0.604-20.972 5.974-5.623 15.342-5.331 20.983 0.625 5.62 5.894 5.35 15.307-0.604 20.951zM549.615 197.969c-5.954 5.64-15.363 5.286-20.963-0.666-5.642-5.89-5.371-15.317 0.583-20.936 5.933-5.619 15.363-5.328 20.942 0.624 5.642 5.931 5.413 15.359-0.562 20.978zM625.896 269.965c-5.936 5.627-15.309 5.356-20.953-0.563-5.644-5.939-5.374-15.4 0.583-21.027 5.957-5.564 15.371-5.335 20.974 0.625s5.374 15.317-0.604 20.965zM693.714 346.263c-5.916 5.578-15.354 5.349-20.978-0.666-5.625-5.89-5.354-15.256 0.625-20.938 5.937-5.619 15.291-5.328 20.957 0.624 5.625 5.932 5.333 15.36-0.604 20.979zM770.015 422.514c-5.959 5.616-15.355 5.345-20.96-0.666-5.646-5.886-5.396-15.246 0.563-20.924 5.98-5.616 15.355-5.345 21.022 0.666 5.584 5.949 5.292 15.308-0.625 20.924zM837.811 494.504c-5.955 5.628-15.325 5.399-20.989-0.542-5.58-5.961-5.351-15.362 0.604-20.99 5.976-5.628 15.367-5.357 20.989 0.563 5.622 6.024 5.351 15.383-0.604 20.969zM909.876 570.777c-5.955 5.643-15.345 5.373-20.988-0.583-5.601-5.956-5.372-15.327 0.604-20.991 5.955-5.581 15.324-5.331 20.946 0.625 5.643 5.956 5.393 15.348-0.562 20.949zM977.679 647.058c-5.921 5.625-15.324 5.354-20.973-0.604-5.608-5.958-5.379-15.332 0.605-20.957 5.942-5.625 15.365-5.354 20.953 0.583 5.629 5.979 5.379 15.353-0.584 20.978zM1045.496 719.072c-5.983 5.643-15.323 5.351-20.973-0.541-5.629-6.017-5.358-15.387 0.563-21.009 5.983-5.622 15.365-5.351 21.015 0.583 5.608 5.955 5.337 15.345-0.605 20.967zM1100.787 794.777c-5.612-5.982-5.32-15.361 0.605-20.968 5.966-5.648 15.395-5.377 21.028 0.563 2.67 2.855 4.005 6.503 4.005 10.171-1.648 3.752-3.359 7.441-5.069 11.193-5.987 5.19-15.041 4.856-20.569-0.959zM477.222-16.107c-6.441 5.72-16.576 5.444-22.703-0.614-0.766-0.784-1.374-1.631-1.982-2.479 9.865-3.517 19.73-6.652 29.549-9.703 0.586 4.597-0.991 9.364-4.865 12.796zM545.369 62.35c-5.955 5.62-15.325 5.391-20.989-0.604-5.58-5.953-5.351-15.341 0.604-20.961 5.976-5.62 15.367-5.329 20.989 0.624s5.351 15.299-0.604 20.94zM617.435 134.363c-5.958 5.682-15.352 5.349-20.976-0.541-5.624-5.952-5.374-15.38 0.583-20.999s15.373-5.349 20.935 0.604c5.666 5.952 5.416 15.317-0.542 20.936zM685.224 210.676c-5.939 5.576-15.336 5.347-20.983-0.603-5.605-5.951-5.313-15.376 0.583-20.932 6.001-5.68 15.378-5.41 20.983 0.541 5.647 5.951 5.397 15.314-0.583 20.994zM761.504 286.959c-5.915 5.581-15.287 5.289-20.953-0.604-5.603-5.956-5.374-15.326 0.583-21.011 5.998-5.622 15.392-5.331 20.973 0.625 5.665 5.935 5.353 15.326-0.604 20.99zM829.316 363.161c-5.915 5.629-15.33 5.4-20.954-0.563-5.624-5.942-5.353-15.345 0.604-20.974 5.978-5.629 15.33-5.358 20.954 0.605 5.665 5.963 5.353 15.345-0.604 20.932zM905.593 435.21c-5.954 5.637-15.322 5.346-20.943-0.603-5.621-5.886-5.35-15.309 0.604-20.925 5.954-5.678 15.322-5.387 20.943 0.603 5.663 5.949 5.392 15.309-0.604 20.925zM973.424 511.46c-5.936 5.642-15.33 5.372-20.975-0.583-5.603-5.955-5.332-15.345 0.604-20.967 5.978-5.622 15.33-5.351 20.996 0.604 5.603 5.955 5.353 15.324-0.625 20.946zM1045.474 587.727c-5.935 5.643-15.328 5.372-20.972-0.604-5.602-5.893-5.352-15.325 0.646-20.947 5.935-5.622 15.307-5.351 20.909 0.604 5.644 5.955 5.415 15.325-0.583 20.947zM1113.334 659.762c-5.961 5.624-15.362 5.353-21.011-0.542-5.607-5.978-5.357-15.394 0.604-20.997 5.982-5.645 15.362-5.374 21.011 0.583 5.565 5.958 5.315 15.331-0.604 20.956zM613.178-5.426c-5.938 5.625-15.357 5.333-20.982-0.563-5.584-6-5.355-15.396 0.604-20.959 5.98-5.688 15.336-5.396 20.982 0.563 5.647 6 5.334 15.313-0.604 20.959zM681.027 70.795c-5.975 5.68-15.343 5.389-21.006-0.541-5.621-5.95-5.35-15.376 0.604-20.993s15.364-5.347 20.944 0.666c5.663 5.888 5.371 15.251-0.541 20.868zM753.026 142.867c-5.935 5.621-15.326 5.35-20.969-0.604-5.602-5.954-5.331-15.322 0.604-20.943 5.976-5.621 15.347-5.413 20.99 0.604 5.622 5.891 5.352 15.322-0.625 20.943zM820.857 219.148c-5.956 5.579-15.347 5.35-20.949-0.604-5.643-5.954-5.393-15.321 0.604-21.004 5.935-5.621 15.306-5.287 20.949 0.604 5.622 6.016 5.352 15.342-0.604 21.004zM897.147 299.63c-5.976 5.625-15.346 5.354-20.989-0.604-5.58-5.958-5.351-15.396 0.604-20.959 5.976-5.625 15.367-5.354 20.989 0.604 5.622 5.896 5.351 15.333-0.604 20.958zM964.94 375.887c-5.921 5.644-15.346 5.353-20.954-0.604s-5.358-15.329 0.584-20.953c5.984-5.624 15.387-5.353 20.954 0.604 5.671 5.957 5.4 15.329-0.584 20.953zM1036.989 452.159c-5.914 5.625-15.306 5.354-20.95-0.604-5.602-5.896-5.373-15.333 0.583-20.959 5.935-5.625 15.327-5.354 20.95 0.604 5.664 5.958 5.414 15.333-0.583 20.959zM1104.82 524.18c-5.979 5.64-15.353 5.349-20.956-0.583-5.624-5.973-5.374-15.338 0.562-20.978 6.020-5.619 15.353-5.349 20.998 0.604 5.645 5.931 5.333 15.338-0.604 20.957zM1156.069 578.795c2.522-2.377 5.658-3.639 8.9-3.954 0.191 10.054 0.064 19.899-0.297 29.658-3.412-0.4-6.696-1.893-9.176-4.564-5.743-5.995-5.446-15.481 0.572-21.14zM659.949-59.421c4.471 0 8.9 0.042 13.245 0.275-4.217 1.97-9.155 1.864-13.245-0.275zM744.569 7.251c-5.931 5.688-15.316 5.354-20.976-0.542-5.619-5.958-5.348-15.354 0.603-21.021 5.952-5.583 15.316-5.313 20.935 0.604 5.66 5.958 5.411 15.333-0.562 20.958zM820.892 83.552c-5.999 5.617-15.353 5.347-20.998-0.603-5.624-5.95-5.374-15.313 0.604-20.993 5.937-5.617 15.311-5.285 20.956 0.603 5.645 6.013 5.333 15.375-0.562 20.993zM888.673 159.813c-5.916 5.622-15.331 5.351-20.955-0.604s-5.395-15.326 0.562-20.948c5.978-5.622 15.352-5.393 21.017 0.604 5.582 5.955 5.332 15.326-0.625 20.948zM956.505 231.839c-5.978 5.625-15.352 5.354-20.976-0.604s-5.395-15.333 0.583-20.959c5.978-5.625 15.352-5.354 20.935 0.604 5.666 5.958 5.395 15.333-0.542 20.959zM1032.774 308.158c-5.939 5.561-15.337 5.29-20.985-0.666-5.606-5.957-5.335-15.329 0.583-20.952 6.002-5.623 15.358-5.353 20.964 0.604 5.668 5.957 5.397 15.329-0.563 21.015zM1100.595 384.368c-5.938 5.625-15.334 5.354-20.98-0.604-5.604-5.896-5.375-15.333 0.583-20.959 6-5.625 15.396-5.354 20.959 0.604 5.667 5.958 5.375 15.333-0.563 20.959zM1153.067 440.979c0.636-0.674 1.293-1.232 1.992-1.72 1.674 10.018 3.179 19.873 4.535 29.658-2.607-0.744-5.107-2.231-7.12-4.625-5.722-6.648-5.446-17.107 0.593-23.313zM859.326 31.377c-5.765-6.883-5.488-17.714 0.598-24.212 0.021 0 0 0 0.021-0.072 8.584 5.68 16.826 11.601 24.898 17.521-0.747 2.744-2.050 5.367-3.993 7.461-6.128 6.498-15.737 6.185-21.524-0.698zM956.496 100.494c-5.976 5.625-15.345 5.354-20.987-0.604-5.601-5.958-5.372-15.333 0.604-20.959s15.345-5.354 20.946 0.604c5.663 5.896 5.372 15.333-0.562 20.959zM1003.896 150.959c5.957-5.625 15.392-5.354 20.994 0.604 5.644 5.958 5.353 15.333-0.604 20.959-5.936 5.625-15.35 5.354-20.932-0.604-5.665-5.896-5.374-15.333 0.542-20.959zM1070.907 247.964c-5.314-6.159-5.040-16.018 0.569-21.894 1.157-1.219 2.53-2.133 3.941-2.895 4.549 9.119 8.805 18.216 12.864 27.443-5.53 3.678-12.766 2.764-17.374-2.655z" />
<glyph unicode="&#xe930;" glyph-name="breadcrumb-2" horiz-adv-x="989" d="M23.871 825.11c-3.375 3.199-8.728 3.045-11.913-0.332-3.197-3.401-3.067-8.733 0.32-11.933 3.399-3.199 8.74-3.057 11.913 0.344 3.245 3.389 3.079 8.721-0.32 11.921zM62.466 868.492c-3.387 3.213-8.727 3.059-11.937-0.332-3.197-3.367-3.043-8.725 0.343-11.926 3.399-3.201 8.727-3.047 11.925 0.344 3.209 3.39 3.055 8.725-0.332 11.914zM103.449 911.894c-3.378 3.188-8.724 3.057-11.936-0.332-3.189-3.401-3.023-8.757 0.344-11.921 3.402-3.211 8.736-3.069 11.924 0.32 3.224 3.377 3.070 8.733-0.332 11.933zM146.701 941.018c1.555 1.29 2.476 2.857 2.808 4.484-5.692-1.724-11.309-3.544-16.88-5.557 4.333-2.447 10.342-2.109 14.072 1.073zM19.071 750.379c-3.39 3.201-8.737 3.047-11.914-0.344-3.236-3.391-3.082-8.738 0.308-11.939 3.402-3.177 8.737-3.035 11.938 0.356s3.035 8.714-0.332 11.927zM57.636 791.381c-3.367 3.185-8.702 3.019-11.926-0.379-3.201-3.363-3.047-8.715 0.344-11.912 3.402-3.197 8.725-3.043 11.915 0.343 3.225 3.386 3.059 8.738-0.332 11.947zM101.033 834.757c-3.377 3.188-8.72 3.045-11.907-0.332-3.211-3.401-3.057-8.733 0.32-11.956 3.4-3.176 8.732-3.033 11.931 0.355 3.223 3.389 3.057 8.733-0.344 11.933zM139.631 878.162c-3.365 3.164-8.72 3.045-11.943-0.367-3.187-3.365-3.033-8.72 0.344-11.908 3.4-3.223 8.732-3.045 11.931 0.32 3.211 3.401 3.057 8.72-0.332 11.955zM180.622 919.111c-3.388 3.212-8.731 3.070-11.941-0.32-3.175-3.402-3.044-8.759 0.344-11.923 3.4-3.2 8.731-3.070 11.953 0.332 3.187 3.378 3.033 8.735-0.355 11.911zM207.598 950.163c3.376-3.072 8.762-2.936 11.948 0.319 2.627 2.64 2.984 6.497 1.201 9.501-5.005 0.068-9.987-0.057-14.921-0.444-1.569-3.095-0.975-6.907 1.771-9.376zM14.239 673.235c-3.366 3.199-8.734 3.057-11.945-0.344-3.176-3.389-3.046-8.721 0.344-11.921 3.401-3.199 8.734-3.045 11.945 0.332 3.188 3.401 3.046 8.733-0.344 11.933zM57.644 714.211c-3.39 3.209-8.724 3.055-11.924-0.32-3.2-3.398-3.070-8.751 0.32-11.948 3.414-3.197 8.712-3.031 11.948 0.355 3.188 3.387 3.046 8.703-0.344 11.912zM96.222 757.609c-3.388 3.202-8.72 3.048-11.931-0.332-3.187-3.368-3.057-8.74 0.332-11.942 3.4-3.19 8.708-3.036 11.919 0.344 3.223 3.392 3.080 8.728-0.32 11.93zM139.624 801.015c-3.379 3.198-8.713 3.020-11.926-0.355-3.189-3.376-3.059-8.73 0.344-11.939 3.402-3.186 8.713-3.020 11.926 0.343 3.189 3.388 3.070 8.718-0.344 11.951zM175.825 841.994c-3.391 3.198-8.738 3.032-11.951-0.367-3.201-3.375-3.059-8.704 0.344-11.926 3.403-3.186 8.738-3.020 11.927 0.343 3.189 3.387 3.047 8.74-0.32 11.949zM214.394 885.372c-3.379 3.2-8.738 3.057-11.94-0.332-3.201-3.377-3.047-8.734 0.332-11.922 3.391-3.212 8.738-3.057 11.928 0.332 3.213 3.401 3.059 8.734-0.32 11.922zM257.792 928.766c-3.378 3.21-8.723 3.044-11.923-0.344s-3.070-8.719 0.32-11.929c3.401-3.187 8.735-3.044 11.923 0.355 3.224 3.376 3.070 8.719-0.32 11.917zM52.804 639.479c-3.363 3.232-8.704 3.042-11.913-0.343-3.197-3.385-3.055-8.712 0.32-11.908 3.399-3.22 8.739-3.042 11.948 0.343s3.043 8.712-0.355 11.908zM91.389 680.47c-3.386 3.2-8.713 3.046-11.91-0.332-3.208-3.389-3.066-8.71 0.343-11.922 3.386-3.223 8.737-3.057 11.91 0.332 3.22 3.389 3.054 8.71-0.343 11.922zM134.795 723.882c-3.374 3.188-8.714 3.010-11.911-0.355-3.197-3.377-3.067-8.721 0.32-11.945 3.41-3.188 8.762-3.034 11.935 0.367 3.22 3.365 3.055 8.71-0.343 11.933zM173.379 767.25c-3.387 3.201-8.717 3.058-11.927-0.344-3.186-3.366-3.044-8.713 0.343-11.913 3.399-3.212 8.729-3.046 11.915 0.32 3.222 3.39 3.079 8.724-0.332 11.937zM214.377 808.211c-3.379 3.234-8.715 3.068-11.928-0.308-3.19-3.388-3.047-8.73 0.344-11.94 3.391-3.186 8.715-3.056 11.928 0.367 3.213 3.388 3.047 8.706-0.344 11.881zM252.982 851.628c-3.403 3.2-8.738 3.046-11.95-0.344-3.189-3.378-3.047-8.724 0.344-11.924 3.367-3.2 8.738-3.046 11.927 0.332 3.213 3.402 3.047 8.724-0.32 11.936zM291.561 895.010c-3.38 3.212-8.741 3.057-11.931-0.332-3.214-3.366-3.060-8.722 0.332-11.922s8.752-3.057 11.943 0.332c3.178 3.401 3.036 8.734-0.344 11.922zM323.991 922.035c3.833-2.869 9.568-3.098 13.61-0.651-2.8 1.603-5.495 3.23-8.445 4.894-2.68 1.483-5.435 2.76-8.085 4.11-0.943-2.893 0.015-6.123 2.92-8.353zM86.578 603.322c-3.376 3.199-8.729 3.057-11.939-0.308-3.186-3.389-3.044-8.756 0.343-11.943 3.399-3.211 8.729-3.057 11.939 0.32 3.198 3.412 3.044 8.732-0.343 11.931zM129.97 646.726c-3.353 3.186-8.696 3.044-11.919-0.332-3.199-3.376-3.045-8.753 0.344-11.951 3.4-3.198 8.732-3.032 11.919 0.367 3.223 3.376 3.057 8.705-0.344 11.915zM168.564 690.109c-3.365 3.199-8.731 3.057-11.918-0.332-3.211-3.4-3.057-8.72 0.32-11.93 3.4-3.211 8.731-3.033 11.93 0.32 3.222 3.388 3.057 8.743-0.332 11.942zM211.983 731.090c-3.369 3.199-8.719 3.057-11.933-0.332-3.203-3.377-3.060-8.733 0.32-11.921 3.404-3.211 8.742-3.057 11.957 0.32 3.179 3.401 3.037 8.745-0.344 11.933zM250.557 774.485c-3.389 3.208-8.721 3.042-11.943-0.343-3.175-3.385-3.045-8.712 0.344-11.908 3.412-3.22 8.732-3.066 11.931 0.331s3.069 8.712-0.332 11.92zM291.557 817.878c-3.39 3.2-8.723 3.046-11.923-0.344-3.212-3.378-3.070-8.748 0.32-11.925 3.401-3.2 8.735-3.046 11.923 0.344 3.212 3.366 3.070 8.724-0.32 11.925zM330.145 858.852c-3.412 3.211-8.732 3.057-11.93-0.344-3.211-3.388-3.068-8.72 0.332-11.918 3.377-3.199 8.732-3.045 11.919 0.344 3.211 3.4 3.057 8.708-0.32 11.918zM357.359 885.448c3.694-3.598 9.46-3.425 12.96 0.386 0.386 0.44 0.746 0.919 1.042 1.413-4.131 4.104-8.662 8.275-13.423 12.486-0.322-0.28-0.656-0.546-0.94-0.866-3.514-3.825-3.308-9.808 0.36-13.419zM125.181 564.751c-3.415 3.2-8.739 3.058-11.941-0.308-3.202-3.413-3.071-8.758 0.332-11.958 3.379-3.188 8.727-3.046 11.917 0.344 3.225 3.389 3.047 8.734-0.308 11.922zM163.744 608.146c-3.376 3.199-8.719 3.056-11.918-0.332-3.21-3.376-3.068-8.731 0.32-11.93 3.4-3.199 8.731-3.056 11.941 0.344 3.187 3.388 3.056 8.707-0.344 11.918zM207.154 651.545c-3.39 3.208-8.723 3.043-11.935-0.379-3.188-3.351-3.058-8.69 0.332-11.875 3.402-3.232 8.723-3.055 11.935 0.332s3.046 8.726-0.332 11.922zM245.728 694.925c-3.367 3.212-8.714 3.058-11.939-0.332-3.178-3.401-3.035-8.723 0.344-11.923 3.391-3.2 8.726-3.058 11.928 0.344 3.225 3.378 3.059 8.723-0.332 11.911zM286.721 735.932c-3.39 3.186-8.723 3.021-11.923-0.355-3.2-3.388-3.046-8.73 0.32-11.928 3.425-3.198 8.759-3.044 11.947 0.32 3.212 3.411 3.046 8.754-0.344 11.964zM325.31 784.122c-3.365 3.199-8.733 3.057-11.921-0.308-3.199-3.424-3.069-8.744 0.32-11.954 3.401-3.199 8.745-3.045 11.944 0.344s3.045 8.708-0.344 11.919zM368.717 825.114c-3.387 3.185-8.728 3.055-11.925-0.343-3.197-3.386-3.067-8.737 0.332-11.934 3.387-3.197 8.728-3.031 11.902 0.331 3.245 3.41 3.079 8.749-0.308 11.946zM395.7 851.845c2.64-2.962 6.356-3.474 9.422-1.751-2.924 5.197-6.238 10.537-9.895 15.891-3.042-4.072-2.864-10.337 0.473-14.139zM163.733 530.992c-3.365 3.222-8.722 3.068-11.921-0.332-3.199-3.364-3.045-8.729 0.344-11.916 3.377-3.198 8.745-3.056 11.933 0.332 3.199 3.388 3.045 8.718-0.355 11.916zM202.324 574.398c-3.377 3.197-8.732 3.055-11.92-0.332-3.211-3.375-3.057-8.715 0.332-11.947 3.377-3.197 8.709-3.019 11.92 0.367 3.199 3.375 3.081 8.715-0.332 11.912zM240.923 617.795c-3.391 3.2-8.738 3.046-11.939-0.356-3.189-3.378-3.071-8.723 0.332-11.911 3.391-3.2 8.738-3.046 11.939 0.308 3.189 3.425 3.047 8.758-0.332 11.958zM284.332 658.776c-3.402 3.198-8.724 3.044-11.948-0.343-3.189-3.388-3.058-8.718 0.344-11.939 3.414-3.198 8.724-3.020 11.913 0.367 3.224 3.388 3.058 8.718-0.308 11.916zM322.91 702.182c-3.391 3.188-8.738 3.022-11.951-0.356-3.178-3.389-3.047-8.734 0.344-11.934 3.379-3.2 8.738-3.034 11.951 0.356 3.189 3.378 3.023 8.722-0.344 11.934zM363.909 745.565c-3.389 3.186-8.721 3.044-11.944-0.343-3.199-3.387-3.057-8.74 0.344-11.938 3.377-3.198 8.721-3.032 11.92 0.343 3.211 3.387 3.045 8.728-0.32 11.938zM402.484 786.535c-3.404 3.202-8.718 3.047-11.967-0.308-3.155-3.403-3.024-8.751 0.368-11.929 3.38-3.225 8.729-3.083 11.932 0.308s3.048 8.739-0.332 11.929zM197.504 497.277c-3.388 3.189-8.729 3.011-11.927-0.344-3.198-3.391-3.056-8.726 0.332-11.962 3.399-3.165 8.729-3.035 11.915 0.368 3.222 3.367 3.080 8.726-0.32 11.938zM240.915 540.654c-3.378 3.187-8.723 3.056-11.935-0.344-3.188-3.388-3.058-8.719 0.332-11.917 3.402-3.222 8.723-3.045 11.935 0.332 3.212 3.364 3.046 8.743-0.332 11.929zM279.497 584.044c-3.402 3.2-8.737 3.046-11.926-0.344-3.213-3.39-3.058-8.723 0.332-11.946 3.379-3.164 8.725-3.034 11.926 0.367 3.201 3.39 3.058 8.723-0.332 11.923zM322.904 625.026c-3.402 3.2-8.724 3.046-11.925-0.344-3.212-3.354-3.058-8.724 0.32-11.924 3.39-3.2 8.748-3.046 11.937 0.332 3.2 3.402 3.058 8.735-0.332 11.936zM361.492 668.413c-3.402 3.211-8.737 3.046-11.926-0.344-3.213-3.365-3.070-8.71 0.32-11.921 3.402-3.2 8.737-3.046 11.926 0.344 3.224 3.389 3.047 8.734-0.32 11.921zM397.667 711.802c-3.403 3.199-8.74 3.057-11.965-0.308-3.166-3.412-3.036-8.744 0.368-11.954 3.392-3.199 8.728-3.045 11.918 0.344 3.214 3.388 3.048 8.732-0.32 11.919zM429.666 752.492c-3.267-3.404-3.087-8.771 0.35-11.984 2.315-2.166 5.51-2.761 8.368-1.928-0.603 5.189-1.025 10.675-1.519 16.459-2.568 0.286-5.257-0.536-7.198-2.547zM236.090 463.513c-3.378 3.197-8.724 3.043-11.924-0.343s-3.070-8.716 0.32-11.936c3.402-3.197 8.747-3.031 11.948 0.367 3.188 3.375 3.046 8.716-0.344 11.913zM274.669 506.908c-3.378 3.188-8.723 3.046-11.924-0.344s-3.058-8.724 0.32-11.924c3.414-3.2 8.735-3.058 11.947 0.332 3.2 3.402 3.046 8.724-0.344 11.936zM318.087 547.873c-3.378 3.212-8.724 3.058-11.936-0.32s-3.046-8.736 0.332-11.937c3.402-3.201 8.748-3.046 11.925 0.344 3.212 3.39 3.058 8.724-0.32 11.913zM356.661 591.292c-3.382 3.188-8.722 3.022-11.938-0.367-3.18-3.366-3.050-8.734 0.332-11.922 3.394-3.2 8.77-3.034 11.938 0.344 3.204 3.378 3.062 8.734-0.332 11.946zM397.645 634.653c-3.366 3.198-8.734 3.080-11.922-0.308-3.2-3.4-3.046-8.719 0.32-11.941 3.425-3.198 8.746-3.056 11.933 0.332 3.223 3.388 3.069 8.719-0.332 11.917zM436.244 675.644c-3.404 3.207-8.742 3.054-11.945-0.343-3.179-3.373-3.049-8.723 0.332-11.93 3.404-3.196 8.742-3.030 11.945 0.367 3.203 3.385 3.049 8.699-0.332 11.907zM269.849 429.762c-3.376 3.201-8.705 3.046-11.915-0.344s-3.079-8.724 0.32-11.913c3.411-3.212 8.717-3.058 11.927 0.32 3.222 3.366 3.044 8.736-0.332 11.937zM313.261 473.154c-3.378 3.2-8.735 3.046-11.923-0.344-3.224-3.39-3.058-8.724 0.32-11.924 3.39-3.2 8.735-3.046 11.947 0.332 3.188 3.402 3.034 8.735-0.344 11.936zM351.831 514.149c-3.354 3.188-8.723 3.022-11.934-0.344-3.188-3.401-3.034-8.757 0.332-11.945 3.413-3.2 8.746-3.034 11.946 0.356 3.2 3.377 3.058 8.722-0.344 11.933zM395.246 557.519c-3.379 3.199-8.714 3.069-11.938-0.344-3.189-3.353-3.047-8.72 0.332-11.919 3.403-3.199 8.749-3.045 11.938 0.344 3.213 3.388 3.047 8.72-0.332 11.919zM433.832 600.916c-3.377 3.197-8.733 3.055-11.944-0.332-3.188-3.398-3.045-8.726 0.344-11.911 3.401-3.232 8.733-3.067 11.921 0.32 3.211 3.375 3.069 8.726-0.32 11.923zM474.83 641.903c-3.414 3.197-8.749 3.043-11.961-0.343-3.165-3.398-3.035-8.738 0.356-11.911 3.402-3.232 8.725-3.055 11.926 0.332 3.213 3.363 3.058 8.702-0.32 11.923zM508.675 670.696c-2.351 0.796-4.69 1.627-6.957 2.507 0.072-0.084 0.145-0.181 0.217-0.253 1.893-1.772 4.341-2.507 6.74-2.254zM308.438 396.006c-3.401 3.208-8.722 3.054-11.934-0.343-3.2-3.362-3.058-8.713 0.332-11.933 3.401-3.196 8.734-3.019 11.946 0.367 3.2 3.35 3.022 8.713-0.344 11.91zM347.027 436.992c-3.416 3.2-8.729 3.046-11.943-0.332-3.19-3.402-3.060-8.724 0.332-11.936 3.38-3.188 8.729-3.058 11.931 0.344 3.202 3.39 3.060 8.724-0.32 11.924zM390.438 480.374c-3.412 3.198-8.731 3.080-11.953-0.343-3.199-3.352-3.045-8.718 0.355-11.916 3.364-3.198 8.731-3.044 11.906 0.343 3.199 3.388 3.080 8.729-0.308 11.916zM429.005 523.777c-3.404 3.209-8.729 3.043-11.931-0.355-3.202-3.351-3.048-8.714 0.32-11.911 3.404-3.209 8.741-3.043 11.943 0.343s3.060 8.714-0.332 11.923zM472.42 564.757c-3.414 3.189-8.748 3.059-11.973-0.332-3.165-3.403-3.011-8.726 0.367-11.927 3.39-3.201 8.725-3.059 11.914 0.32 3.224 3.403 3.070 8.75-0.308 11.939zM508.583 608.131c-3.39 3.222-8.724 3.068-11.948-0.308-3.189-3.388-3.023-8.742 0.344-11.94 3.402-3.198 8.736-3.056 11.948 0.367 3.189 3.364 3.046 8.706-0.344 11.881zM551.976 651.537c-3.365 3.197-8.708 3.066-11.919-0.343-3.199-3.398-3.057-8.714 0.344-11.91 3.4-3.22 8.744-3.043 11.919 0.32 3.211 3.386 3.057 8.737-0.344 11.934zM308.148 306.929c4.068 3.359 3.872 8.736-0.437 11.94-3.767 2.813-9.417 3.015-13.516 0.807 1.627-5.044 3.3-10.136 4.927-15.323 3.24-0.285 6.615 0.57 9.025 2.576zM347.021 362.263c-3.403 3.2-8.74 3.046-11.942-0.344-3.19-3.39-3.048-8.724 0.332-11.924 3.403-3.2 8.74-3.046 11.942 0.332 3.202 3.402 3.048 8.735-0.332 11.936zM385.613 403.242c-3.4 3.21-8.72 3.044-11.955-0.355-3.187-3.352-3.045-8.719 0.355-11.917 3.389-3.187 8.732-3.044 11.919 0.344 3.199 3.388 3.057 8.719-0.32 11.929zM424.187 446.635c-3.4 3.2-8.719 3.046-11.941-0.332-3.187-3.366-3.056-8.7 0.344-11.936 3.388-3.188 8.731-3.058 11.918 0.344 3.21 3.39 3.068 8.724-0.32 11.924zM467.6 490.032c-3.402 3.197-8.736 3.043-11.937-0.355-3.2-3.374-3.070-8.726 0.332-11.923s8.736-3.031 11.925 0.332c3.212 3.386 3.046 8.75-0.32 11.946zM506.189 531.002c-3.412 3.208-8.742 3.054-11.964-0.331-3.187-3.386-3.033-8.713 0.355-11.909 3.4-3.232 8.731-3.066 11.929 0.331 3.198 3.386 3.044 8.725-0.32 11.909zM547.173 574.382c-3.4 3.223-8.743 3.069-11.929-0.32-3.21-3.401-3.068-8.721 0.332-11.933 3.388-3.188 8.731-3.045 11.929 0.332 3.198 3.413 3.044 8.745-0.332 11.921zM585.741 617.795c-3.389 3.198-8.733 3.044-11.921-0.344-3.199-3.376-3.057-8.719 0.32-11.929 3.401-3.198 8.745-3.044 11.944 0.355 3.199 3.364 3.057 8.719-0.344 11.917zM626.974 647.763c-4.023 0.687-8.046 1.386-12.057 2.037 0.37-0.579 0.775-1.145 1.283-1.639 3.017-2.977 7.641-3.074 10.774-0.398zM342.204 285.123c-3.416 3.199-8.729 3.045-11.943-0.344-3.19-3.389-3.060-8.721 0.332-11.909 3.404-3.223 8.741-3.057 11.931 0.308 3.214 3.413 3.048 8.745-0.32 11.944zM380.771 326.1c-3.367 3.2-8.727 3.046-11.928-0.308-3.201-3.401-3.047-8.758 0.344-11.958 3.379-3.2 8.727-3.046 11.928 0.356 3.201 3.378 3.047 8.711-0.344 11.911zM424.173 369.505c-3.391 3.188-8.703 3.034-11.928-0.344-3.201-3.366-3.035-8.734 0.332-11.91 3.403-3.235 8.738-3.069 11.939 0.32s3.059 8.722-0.344 11.933zM462.77 412.903c-3.391 3.162-8.751 3.043-11.952-0.343-3.19-3.387-3.024-8.739 0.344-11.948 3.403-3.185 8.739-3.043 11.94 0.343 3.213 3.387 3.035 8.739-0.332 11.948zM501.342 453.878c-3.377 3.176-8.721 3.045-11.933-0.344-3.176-3.389-3.057-8.757 0.332-11.921 3.413-3.223 8.745-3.057 11.933 0.332 3.211 3.401 3.069 8.721-0.332 11.933zM544.737 497.263c-3.389 3.196-8.709 3.042-11.908-0.343-3.223-3.374-3.045-8.713 0.332-11.921 3.377-3.196 8.733-3.066 11.92 0.331 3.211 3.409 3.069 8.737-0.344 11.933zM583.335 540.652c-3.375 3.2-8.728 3.046-11.926-0.344-3.198-3.366-3.067-8.724 0.343-11.924 3.375-3.2 8.716-3.046 11.926 0.332 3.198 3.378 3.044 8.735-0.343 11.936zM624.337 584.041c-3.377 3.198-8.745 3.056-11.921-0.344-3.211-3.352-3.081-8.719 0.32-11.929 3.401-3.198 8.733-3.033 11.944 0.355 3.188 3.364 3.033 8.719-0.344 11.917zM662.915 625.018c-3.389 3.199-8.734 3.057-11.945-0.308-3.188-3.4-3.034-8.755 0.344-11.954 3.401-3.199 8.734-3.045 11.945 0.344 3.188 3.388 3.045 8.732-0.344 11.919zM339.901 191.215c3.514 3.356 3.331 8.729-0.379 11.931-3.749 3.202-9.641 3.083-13.142-0.344-0.34-0.285-0.575-0.629-0.836-0.972 1.568-4.364 3.148-8.669 4.82-12.844 3.266-0.937 7.015-0.225 9.536 2.23zM378.386 246.551c-3.404 3.2-8.753 3.046-11.944-0.344-3.202-3.39-3.072-8.724 0.332-11.925 3.392-3.2 8.73-3.046 11.92 0.344 3.214 3.39 3.048 8.724-0.308 11.925zM419.346 289.951c-3.366 3.201-8.699 3.023-11.922-0.344-3.2-3.403-3.046-8.726 0.344-11.951 3.378-3.177 8.734-3.023 11.922 0.356 3.212 3.379 3.058 8.726-0.344 11.939zM457.942 330.911c-3.38 3.21-8.718 3.068-11.932-0.332-3.191-3.388-3.060-8.731 0.332-11.941 3.392-3.175 8.753-3.033 11.932 0.367 3.202 3.388 3.060 8.719-0.332 11.906zM501.35 374.308c-3.39 3.211-8.701 3.057-11.925-0.344-3.212-3.389-3.058-8.71 0.32-11.91 3.402-3.211 8.76-3.046 11.937 0.32 3.2 3.401 3.058 8.734-0.332 11.933zM539.939 417.709c-3.4 3.199-8.731 3.045-11.954-0.344-3.175-3.388-3.045-8.744 0.355-11.919 3.388-3.199 8.731-3.057 11.93 0.308 3.199 3.4 3.045 8.755-0.332 11.954zM583.313 463.512c-3.368 3.197-8.706 3.043-11.908-0.331-3.202-3.398-3.048-8.726 0.332-11.934 3.392-3.197 8.741-3.066 11.92 0.355 3.226 3.386 3.072 8.714-0.344 11.91zM619.51 506.903c-3.389 3.189-8.732 3.058-11.931-0.344-3.199-3.366-3.057-8.724 0.332-11.925 3.412-3.201 8.744-3.046 11.943 0.344 3.199 3.366 3.033 8.724-0.344 11.925zM658.104 547.874c-3.39 3.22-8.747 3.054-11.947-0.343-3.2-3.385-3.046-8.724 0.344-11.92s8.747-3.042 11.924 0.355c3.2 3.385 3.058 8.7-0.32 11.908zM701.49 591.277c-3.388 3.197-8.707 3.055-11.929-0.367-3.198-3.351-3.044-8.68 0.344-11.889 3.412-3.221 8.742-3.055 11.929 0.332 3.21 3.375 3.044 8.716-0.344 11.925zM737.9 619.848c-4.019 1.543-8.049 3.001-12.057 4.375 0.395-1.314 1.027-2.495 2.032-3.52 2.8-2.784 6.966-3.062 10.025-0.856zM373.556 169.391c-3.415 3.22-8.751 3.066-11.952-0.308-3.178-3.386-3.059-8.748 0.332-11.945 3.415-3.196 8.751-3.042 11.952 0.343 3.178 3.386 3.047 8.713-0.332 11.909zM416.941 212.776c-3.393 3.23-8.708 3.076-11.935-0.308-3.18-3.419-3.049-8.744 0.344-11.939s8.732-3.041 11.935 0.343c3.203 3.384 3.049 8.708-0.344 11.903zM453.124 253.792c-3.398 3.2-8.703 3.034-11.948-0.379-3.185-3.354-3.043-8.724 0.355-11.924 3.387-3.165 8.715-3.011 11.924 0.344 3.197 3.39 3.055 8.759-0.332 11.96zM496.53 297.186c-3.399 3.199-8.728 3.021-11.937-0.355-3.197-3.388-3.055-8.708 0.343-11.942 3.387-3.187 8.728-3.009 11.925 0.344 3.197 3.4 3.055 8.732-0.332 11.954zM535.118 340.573c-3.399 3.197-8.728 3.043-11.938-0.379-3.209-3.351-3.055-8.704 0.343-11.901 3.375-3.197 8.728-3.031 11.914 0.332 3.221 3.387 3.044 8.739-0.32 11.948zM578.533 381.55c-3.423 3.199-8.74 3.045-11.961-0.344-3.198-3.388-3.032-8.719 0.355-11.918 3.375-3.199 8.728-3.068 11.926 0.332s3.044 8.731-0.32 11.93zM617.090 424.948c-3.391 3.186-8.726 3.044-11.927-0.355-3.201-3.388-3.047-8.73 0.344-11.928 3.379-3.198 8.726-3.032 11.915 0.355 3.213 3.364 3.071 8.73-0.332 11.928zM658.083 468.331c-3.379 3.2-8.725 3.046-11.914-0.332-3.213-3.378-3.058-8.735 0.32-11.936 3.39-3.2 8.737-3.046 11.938 0.344s3.058 8.724-0.344 11.924zM696.68 509.296c-3.4 3.22-8.731 3.066-11.941-0.32-3.187-3.409-3.056-8.748 0.344-11.92 3.388-3.22 8.731-3.054 11.918 0.331 3.21 3.385 3.068 8.736-0.32 11.908zM735.263 552.686c-3.387 3.233-8.728 3.055-11.938-0.308-3.209-3.387-3.044-8.751 0.343-11.937 3.399-3.209 8.728-3.055 11.914 0.367 3.209 3.351 3.067 8.692-0.32 11.878zM778.647 596.101c-3.365 3.186-8.708 3.056-11.919-0.355-3.187-3.376-3.057-8.706 0.344-11.928 3.377-3.198 8.708-3.020 11.919 0.355 3.223 3.376 3.057 8.694-0.344 11.928zM412.108 135.663c-3.378 3.197-8.712 3.043-11.936-0.343-3.165-3.41-3.034-8.751 0.344-11.948 3.414-3.162 8.747-3.031 11.96 0.343 3.2 3.387 3.022 8.751-0.367 11.948zM450.696 179.026c-3.388 3.231-8.694 3.077-11.916-0.308-3.21-3.385-3.056-8.71 0.343-11.941 3.399-3.195 8.718-3.042 11.916 0.379 3.222 3.349 3.044 8.675-0.343 11.87zM491.693 220.055c-3.392 3.179-8.704 3.012-11.918-0.344-3.214-3.392-3.048-8.765 0.332-11.931 3.38-3.202 8.752-3.072 11.93 0.308 3.202 3.392 3.059 8.741-0.344 11.967zM530.287 263.423c-3.39 3.21-8.735 3.044-11.935-0.344s-3.046-8.73 0.332-11.928c3.402-3.198 8.735-3.032 11.935 0.344 3.2 3.352 3.058 8.73-0.332 11.928zM573.695 306.82c-3.39 3.198-8.735 3.044-11.948-0.343-3.177-3.387-3.046-8.729 0.344-11.927 3.402-3.21 8.747-3.032 11.924 0.332 3.212 3.411 3.070 8.729-0.32 11.939zM612.273 347.796c-3.387 3.199-8.727 3.057-11.936-0.344-3.185-3.377-3.055-8.72 0.343-11.919 3.387-3.199 8.739-3.057 11.936 0.344 3.197 3.388 3.043 8.72-0.343 11.919zM655.67 391.197c-3.366 3.198-8.71 3.032-11.922-0.343-3.2-3.375-3.058-8.705 0.356-11.926 3.366-3.198 8.734-3.067 11.922 0.355 3.2 3.387 3.034 8.728-0.356 11.914zM691.838 434.56c-3.365 3.232-8.72 3.066-11.919-0.308-3.199-3.409-3.057-8.749 0.355-11.945 3.377-3.185 8.708-3.042 11.919 0.343s3.033 8.725-0.355 11.909zM735.258 475.556c-3.39 3.2-8.712 3.070-11.924-0.344-3.212-3.354-3.058-8.736 0.32-11.9 3.402-3.212 8.747-3.070 11.947 0.32 3.188 3.39 3.046 8.736-0.344 11.924zM773.835 518.961c-3.379 3.188-8.714 3.046-11.915-0.344-3.213-3.39-3.071-8.736 0.344-11.924 3.379-3.2 8.714-3.058 11.915 0.332 3.213 3.39 3.035 8.736-0.344 11.936zM817.236 562.356c-3.377 3.186-8.721 3.044-11.932-0.355-3.176-3.376-3.045-8.706 0.332-11.928 3.413-3.198 8.757-3.032 11.932 0.355 3.223 3.364 3.069 8.73-0.332 11.928zM450.719 101.923c-3.401 3.174-8.734 3.043-11.957-0.343-3.176-3.387-3.046-8.751 0.356-11.913 3.389-3.233 8.722-3.067 11.933 0.308 3.188 3.422 3.046 8.727-0.332 11.948zM489.271 142.894c-3.369 3.199-8.707 3.045-11.91-0.344s-3.049-8.754 0.32-11.929c3.405-3.199 8.755-3.033 11.934 0.32 3.215 3.388 3.072 8.754-0.344 11.953zM527.87 186.288c-3.374 3.195-8.713 3.041-11.933-0.343-3.196-3.385-3.042-8.71 0.331-11.941 3.386-3.195 8.748-3.030 11.933 0.379 3.208 3.385 3.066 8.71-0.331 11.905zM568.861 229.67c-3.364 3.198-8.707 3.067-11.929-0.343-3.175-3.387-3.068-8.717 0.344-11.926 3.388-3.198 8.743-3.032 11.929 0.355 3.21 3.387 3.044 8.717-0.344 11.914zM607.444 270.665c-3.39 3.196-8.735 3.031-11.935-0.343-3.188-3.386-3.034-8.725 0.332-11.921 3.402-3.232 8.747-3.042 11.935 0.343 3.224 3.398 3.058 8.713-0.332 11.921zM650.85 314.049c-3.388 3.2-8.694 3.046-11.916-0.332-3.21-3.39-3.068-8.759 0.344-11.936 3.388-3.2 8.718-3.046 11.916 0.344s3.056 8.724-0.344 11.924zM689.423 357.427c-3.376 3.209-8.717 3.079-11.903-0.343-3.21-3.363-3.068-8.703 0.32-11.912 3.399-3.197 8.729-3.043 11.939 0.343 3.198 3.387 3.056 8.715-0.355 11.912zM730.443 398.415c-3.389 3.2-8.733 3.057-11.944-0.308-3.199-3.413-3.045-8.745 0.344-11.933 3.401-3.223 8.745-3.069 11.92 0.32 3.211 3.401 3.057 8.733-0.32 11.921zM769.003 441.818c-3.374 3.197-8.726 3.043-11.923-0.343s-3.043-8.749 0.343-11.934c3.386-3.173 8.738-3.055 11.923 0.332 3.209 3.398 3.067 8.749-0.343 11.946zM812.413 485.211c-3.389 3.189-8.732 3.047-11.931-0.344-3.187-3.391-3.045-8.738 0.355-11.927 3.377-3.201 8.708-3.047 11.907 0.332 3.223 3.367 3.069 8.726-0.332 11.939zM851.010 528.604c-3.368 3.188-8.727 3.046-11.929-0.344s-3.071-8.722 0.344-11.945c3.391-3.176 8.715-3.034 11.929 0.356 3.19 3.377 3.036 8.734-0.344 11.933zM484.47 68.164c-3.401 3.198-8.71 3.044-11.933-0.343-3.2-3.388-3.057-8.718 0.344-11.916 3.377-3.198 8.722-3.068 11.921 0.308 3.211 3.423 3.045 8.753-0.332 11.951zM527.871 109.144c-3.365 3.199-8.72 3.045-11.919-0.344-3.211-3.389-3.069-8.757 0.344-11.932 3.377-3.199 8.708-3.033 11.919 0.355 3.199 3.389 3.045 8.721-0.344 11.92zM564.054 152.535c-3.399 3.2-8.717 3.046-11.939-0.344-3.198-3.39-3.056-8.724 0.332-11.925 3.399-3.2 8.741-3.046 11.939 0.344s3.044 8.724-0.332 11.925zM607.465 195.926c-3.403 3.199-8.738 3.045-11.962-0.32-3.177-3.412-3.035-8.743 0.356-11.954 3.391-3.199 8.737-3.033 11.915 0.355 3.225 3.388 3.059 8.72-0.308 11.918zM646.015 236.905c-3.364 3.2-8.706 3.046-11.916-0.308-3.186-3.425-3.056-8.734 0.332-11.957 3.388-3.2 8.742-3.046 11.952 0.344 3.186 3.389 3.044 8.722-0.367 11.922zM684.605 280.316c-3.365 3.189-8.697 3.023-11.919-0.367-3.199-3.378-3.057-8.724 0.344-11.901 3.377-3.224 8.744-3.058 11.919 0.32 3.211 3.39 3.057 8.748-0.344 11.948zM728.016 323.696c-3.388 3.212-8.72 3.023-11.907-0.344-3.211-3.402-3.080-8.724 0.308-11.913 3.412-3.212 8.767-3.070 11.942 0.32 3.199 3.39 3.057 8.724-0.344 11.936zM766.594 364.687c-3.376 3.173-8.719 3.043-11.917-0.355-3.187-3.374-3.068-8.738 0.32-11.923 3.412-3.209 8.743-3.043 11.941 0.332 3.222 3.386 3.044 8.738-0.344 11.947zM807.597 408.060c-3.376 3.212-8.718 3.046-11.928-0.332-3.198-3.377-3.056-8.722 0.344-11.922s8.742-3.069 11.905 0.332c3.222 3.377 3.080 8.722-0.32 11.922zM846.174 451.459c-3.367 3.187-8.715 3.056-11.928-0.344-3.19-3.388-3.047-8.719 0.344-11.918 3.403-3.199 8.751-3.068 11.928 0.332 3.225 3.388 3.035 8.731-0.344 11.93zM889.589 492.439c-3.368 3.201-8.717 3.046-11.931-0.344-3.202-3.39-3.048-8.724 0.332-11.913 3.392-3.212 8.752-3.058 11.943 0.32 3.19 3.402 3.048 8.736-0.344 11.937zM523.056 32.003c-3.4 3.199-8.72 3.045-11.93-0.344-3.222-3.388-3.045-8.72 0.332-11.919 3.4-3.199 8.731-3.069 11.918 0.344 3.211 3.388 3.068 8.72-0.32 11.919zM561.621 75.388c-3.366 3.197-8.723 3.067-11.912-0.343-3.212-3.386-3.058-8.726 0.332-11.923 3.378-3.197 8.723-3.031 11.923 0.32 3.212 3.386 3.058 8.715-0.344 11.947zM602.63 118.786c-3.377 3.2-8.732 3.046-11.918-0.344-3.211-3.39-3.080-8.724 0.332-11.925 3.377-3.2 8.72-3.046 11.93 0.344 3.187 3.39 3.045 8.724-0.344 11.925zM641.216 159.768c-3.398 3.199-8.738 3.045-11.935-0.344s-3.067-8.721 0.355-11.932c3.363-3.199 8.714-3.033 11.911 0.355 3.209 3.389 3.043 8.721-0.332 11.92zM684.609 203.179c-3.376 3.162-8.718 3.043-11.928-0.379-3.186-3.351-3.056-8.715 0.344-11.912s8.742-3.043 11.94 0.343c3.186 3.387 3.044 8.739-0.355 11.948zM723.201 246.554c-3.388 3.196-8.72 3.042-11.942-0.343-3.187-3.386-3.045-8.748 0.355-11.944 3.388-3.196 8.72-3.007 11.906 0.343 3.222 3.421 3.068 8.712-0.32 11.944zM761.787 289.939c-3.388 3.209-8.719 3.044-11.941-0.332-3.198-3.399-3.044-8.728 0.355-11.95 3.388-3.174 8.707-3.032 11.917 0.355s3.044 8.74-0.332 11.926zM802.772 330.908c-3.376 3.223-8.731 3.057-11.929-0.308-3.198-3.389-3.044-8.744 0.332-11.943 3.4-3.199 8.754-3.057 11.929 0.367 3.222 3.377 3.056 8.697-0.332 11.884zM841.357 374.335c-3.363 3.185-8.714 3.019-11.923-0.367-3.197-3.375-3.067-8.715 0.332-11.923 3.398-3.197 8.726-3.043 11.923 0.355 3.22 3.375 3.055 8.703-0.332 11.935zM884.774 417.712c-3.391 3.189-8.737 3.047-11.95-0.344-3.177-3.391-3.047-8.727 0.344-11.928 3.403-3.201 8.738-3.047 11.927 0.344 3.225 3.355 3.047 8.715-0.32 11.928zM923.343 458.686c-3.4 3.199-8.719 3.057-11.918-0.344-3.199-3.389-3.068-8.721 0.32-11.921 3.412-3.199 8.731-3.045 11.941 0.332 3.199 3.401 3.056 8.733-0.344 11.933zM556.798-1.747c-3.376 3.2-8.682 3.046-11.903-0.344-3.21-3.39-3.079-8.724 0.32-11.925s8.741-3.046 11.939 0.344c3.198 3.39 3.044 8.724-0.355 11.925zM600.215 41.646c-3.387 3.199-8.729 3.045-11.939-0.344-3.186-3.389-3.044-8.733 0.343-11.932 3.399-3.199 8.729-3.033 11.939 0.355 3.198 3.353 3.044 8.709-0.343 11.92zM636.39 85.051c-3.388 3.209-8.741 3.008-11.927-0.379-3.21-3.351-3.056-8.715 0.332-11.912 3.376-3.197 8.741-3.031 11.915 0.355 3.21 3.375 3.080 8.739-0.32 11.936zM679.791 126.015c-3.377 3.201-8.71 3.047-11.922-0.32-3.211-3.379-3.057-8.762 0.332-11.964 3.389-3.166 8.746-3.035 11.933 0.356s3.057 8.715-0.344 11.928zM718.378 169.425c-3.366 3.174-8.736 3.043-11.936-0.379-3.2-3.351-3.046-8.68 0.356-11.913 3.378-3.197 8.7-3.031 11.924 0.355 3.2 3.375 3.034 8.739-0.344 11.936zM761.79 212.81c-3.39 3.195-8.737 3.041-11.925-0.379-3.213-3.349-3.070-8.674 0.32-11.905 3.402-3.195 8.737-3.041 11.961 0.379 3.177 3.385 3.011 8.71-0.356 11.905zM800.363 253.77c-3.388 3.202-8.72 3.072-11.942-0.308-3.175-3.392-3.045-8.74 0.344-11.943 3.4-3.202 8.743-3.048 11.942 0.32 3.199 3.427 3.045 8.752-0.344 11.931zM841.366 297.166c-3.388 3.211-8.731 3.057-11.941-0.332-3.187-3.389-3.056-8.72 0.344-11.943 3.388-3.175 8.719-3.033 11.918 0.355 3.21 3.389 3.068 8.732-0.32 11.92zM879.944 340.567c-3.369 3.2-8.719 3.046-11.933-0.344-3.191-3.39-3.060-8.724 0.344-11.924 3.381-3.2 8.742-3.046 11.921 0.332 3.203 3.402 3.060 8.735-0.332 11.936zM918.53 381.541c-3.404 3.21-8.718 3.045-11.933-0.308-3.203-3.424-3.048-8.755 0.32-11.953 3.404-3.199 8.742-3.045 11.957 0.332 3.191 3.388 3.037 8.731-0.344 11.93zM949.988 424.615c-3.193-3.404-3.027-8.74 0.344-11.93 3.395-3.214 8.759-3.060 11.964 0.32 1.519 1.625 2.279 3.7 2.279 5.787-0.938 2.135-1.911 4.234-2.884 6.368-3.406 2.953-8.558 2.763-11.703-0.546zM595.201-36.751c-3.665 3.254-9.431 3.098-12.917-0.35-0.436-0.446-0.782-0.928-1.128-1.41 5.613-2.001 11.225-3.785 16.813-5.52 0.333 2.616-0.564 5.328-2.768 7.28zM633.974 7.889c-3.388 3.198-8.72 3.067-11.942-0.343-3.175-3.387-3.045-8.728 0.344-11.926 3.4-3.198 8.743-3.032 11.942 0.355s3.045 8.705-0.344 11.914zM674.977 48.862c-3.39 3.233-8.735 3.043-11.935-0.308-3.2-3.387-3.058-8.751 0.332-11.948s8.747-3.043 11.911 0.343c3.224 3.387 3.081 8.715-0.308 11.912zM713.547 92.281c-3.379 3.173-8.726 3.043-11.938-0.343-3.189-3.386-3.023-8.749 0.332-11.91 3.414-3.232 8.749-3.078 11.938 0.308 3.213 3.386 3.071 8.713-0.332 11.945zM756.948 135.684c-3.365 3.175-8.698 3.009-11.921-0.344-3.188-3.389-3.057-8.72 0.332-11.955 3.413-3.199 8.757-3.033 11.933 0.355 3.223 3.377 3.045 8.72-0.344 11.943zM795.531 179.040c-3.366 3.203-8.722 3.072-11.922-0.32-3.2-3.381-3.046-8.731 0.344-11.933 3.401-3.203 8.722-3.049 11.922 0.344 3.223 3.393 3.046 8.731-0.344 11.91zM838.929 220.033c-3.388 3.207-8.718 3.042-11.916-0.343-3.198-3.349-3.044-8.71 0.344-11.906 3.388-3.231 8.718-3.065 11.916 0.343 3.222 3.385 3.068 8.71-0.344 11.906zM877.523 263.417c-3.378 3.21-8.722 3.056-11.934-0.332-3.188-3.388-3.034-8.731 0.344-11.929 3.401-3.199 8.722-3.045 11.946 0.344 3.188 3.388 3.046 8.719-0.356 11.917zM918.517 306.81c-3.377 3.211-8.721 3.057-11.932-0.344-3.187-3.353-3.045-8.72 0.367-11.918 3.377-3.199 8.709-3.045 11.897 0.344 3.211 3.388 3.081 8.72-0.332 11.918zM957.127 347.795c-3.392 3.2-8.741 3.046-11.955-0.308-3.19-3.402-3.048-8.759 0.344-11.947 3.404-3.212 8.741-3.058 11.955 0.332 3.167 3.39 3.024 8.723-0.344 11.923zM672.555-30.673c-3.379 3.201-8.737 3.035-11.938-0.32-3.177-3.414-3.047-8.76 0.344-11.925 3.402-3.236 8.725-3.070 11.938 0.32 3.213 3.414 3.035 8.713-0.344 11.925zM711.159 12.694c-3.4 3.232-8.73 3.066-11.952-0.308-3.198-3.386-3.044-8.748 0.344-11.944s8.742-3.042 11.916 0.379c3.222 3.35 3.056 8.677-0.308 11.873zM752.124 53.7c-3.377 3.198-8.72 3.044-11.931-0.343-3.187-3.388-3.033-8.718 0.344-11.916 3.4-3.198 8.732-3.080 11.943 0.343 3.199 3.352 3.045 8.718-0.355 11.916zM790.718 97.101c-3.389 3.174-8.732 3.044-11.919-0.343-3.211-3.387-3.069-8.717 0.344-11.951 3.377-3.198 8.708-3.008 11.919 0.343 3.199 3.423 3.045 8.729-0.344 11.951zM834.124 142.893c-3.4 3.2-8.731 3.046-11.942-0.344-3.175-3.39-3.045-8.76 0.344-11.925 3.4-3.2 8.743-3.046 11.942 0.344 3.199 3.355 3.045 8.724-0.344 11.925zM872.696 186.281c-3.369 3.211-8.731 3.046-11.922-0.344s-3.049-8.722 0.332-11.921c3.405-3.2 8.755-3.046 11.922 0.344 3.227 3.389 3.072 8.722-0.332 11.921zM913.689 229.677c-3.365 3.2-8.709 3.046-11.92-0.344-3.187-3.355-3.057-8.724 0.332-11.925 3.377-3.2 8.721-3.046 11.92 0.344 3.223 3.39 3.081 8.724-0.332 11.925zM952.283 270.654c-3.402 3.209-8.735 3.043-11.923-0.332-3.2-3.398-3.058-8.727 0.32-11.936 3.425-3.197 8.735-3.043 11.947 0.343 3.212 3.375 3.034 8.727-0.344 11.924zM981.442 301.728c1.435-1.352 3.219-2.070 5.064-2.25 0.109 5.721 0.036 11.322-0.169 16.875-1.941-0.227-3.81-1.077-5.221-2.597-3.267-3.411-3.099-8.808 0.326-12.028zM747.312-23.461c-3.374 3.236-8.714 3.046-11.935-0.308-3.197-3.39-3.043-8.736 0.343-11.96 3.386-3.177 8.714-3.023 11.911 0.344 3.22 3.39 3.078 8.724-0.32 11.925zM790.737 19.952c-3.413 3.196-8.735 3.042-11.947-0.343-3.2-3.386-3.058-8.712 0.344-11.944 3.378-3.196 8.711-3.007 11.923 0.343 3.212 3.421 3.034 8.748-0.32 11.944zM829.303 63.342c-3.366 3.199-8.723 3.045-11.923-0.344s-3.070-8.72 0.32-11.919c3.401-3.199 8.735-3.069 11.958 0.344 3.176 3.388 3.034 8.72-0.356 11.919zM867.897 104.322c-3.401 3.2-8.735 3.046-11.935-0.344s-3.070-8.724 0.332-11.925c3.401-3.2 8.735-3.046 11.911 0.344 3.224 3.39 3.070 8.724-0.308 11.925zM911.291 147.745c-3.379 3.164-8.726 3.010-11.94-0.379-3.189-3.389-3.035-8.722 0.332-11.921 3.415-3.2 8.738-3.045 11.928 0.344 3.225 3.389 3.071 8.722-0.32 11.957zM949.879 191.106c-3.378 3.2-8.724 3.046-11.937-0.344-3.189-3.355-3.058-8.724 0.332-11.925 3.414-3.2 8.76-3.046 11.925 0.344 3.224 3.39 3.058 8.724-0.32 11.925zM979.734 223.316c0.362-0.384 0.735-0.701 1.133-0.979 0.953 5.7 1.809 11.307 2.58 16.875-1.483-0.423-2.906-1.27-4.051-2.632-3.255-3.782-3.099-9.733 0.338-13.264zM812.605-9.734c-3.28-3.916-3.122-10.079 0.34-13.776 0.012 0 0 0 0.012-0.041 4.884 3.232 9.573 6.6 14.166 9.969-0.425 1.561-1.166 3.054-2.272 4.245-3.487 3.697-8.954 3.519-12.246-0.397zM867.892 29.592c-3.4 3.2-8.731 3.046-11.941-0.344-3.187-3.39-3.056-8.724 0.344-11.925s8.731-3.046 11.917 0.344c3.222 3.355 3.056 8.724-0.32 11.925zM894.86 58.304c3.389-3.2 8.757-3.046 11.945 0.344 3.211 3.39 3.045 8.724-0.344 11.925-3.377 3.2-8.734 3.046-11.909-0.344-3.223-3.355-3.057-8.724 0.308-11.925zM932.987 113.497c-3.024-3.504-2.867-9.114 0.324-12.457 0.658-0.693 1.439-1.213 2.243-1.647 2.588 5.188 5.009 10.364 7.319 15.614-3.146 2.093-7.263 1.573-9.885-1.511z" />
<glyph unicode="&#xe931;" glyph-name="breadcrumb-3" d="M1024 448c0-282.738-229.262-512-512-512s-512 229.262-512 512c0 282.809 229.262 512 512 512s512-229.191 512-512z" />
<glyph unicode="&#xe933;" glyph-name="comming-01" horiz-adv-x="6472" d="M511.298 960c146.086 0 261.616-36.674 346.594-110.022s127.466-178.097 127.466-314.247h-302.196c0 57.528-15.038 103.071-45.115 136.629s-72.804 50.337-128.183 50.337c-63.972 0-110.996-20.135-141.072-60.404s-45.115-96.359-45.115-168.27v-92.045c0-70.952 15.038-126.801 45.115-167.551s76.145-61.124 138.208-61.124c61.108 0 107.415 15.82 138.924 47.461s47.263 76.224 47.263 133.753h292.17c0-135.192-41.295-238.741-123.886-310.652s-199.315-107.865-350.175-107.865c-168.046 0-295.273 43.146-381.683 129.438s-129.615 213.812-129.615 382.562c0 168.75 43.204 296.27 129.615 382.562s213.637 129.438 381.683 129.438zM1651.209 960c169.718 0 300.819-43.625 393.306-130.876s138.73-214.291 138.73-381.124c0-166.832-46.243-293.872-138.73-381.124s-223.588-130.876-393.306-130.876c-169.718 0-300.581 43.385-392.591 130.157s-138.015 214.052-138.015 381.843c0 167.791 46.004 295.071 138.015 381.843s222.873 130.157 392.591 130.157zM1656.041 718.491c-67.568 0-118.956-20.661-154.168-61.983s-52.817-97.059-52.817-167.211v-92.254c0-70.152 17.605-125.888 52.817-167.211s86.6-61.983 154.168-61.983c67.568 0 119.194 20.661 154.881 61.983s53.53 97.059 53.53 167.211v92.254c0 70.152-17.843 125.888-53.53 167.211s-87.314 61.983-154.881 61.983zM3210.235-44.679v355.187c0 43.921 1.682 89.035 5.047 135.344s6.97 85.216 10.815 116.725c3.845 31.509 6.249 51.559 7.21 60.153h-5.768l-183.137-667.409h-249.47l-184.579 665.976h-5.768c0.961-8.593 3.605-28.405 7.931-59.437s8.412-69.701 12.257-116.009c3.845-46.308 5.768-91.422 5.768-135.344v-355.187h-292.73v985.358h449.911l149.97-568.586h5.768l148.528 568.586h434.049v-985.358h-315.803zM3728.906-44.679v985.358h318.792v-985.358h-318.792zM4977.619-44.679l-415.721 478.357v-478.357h-292.011v985.358h277.627l415.721-485.518v485.518h292.011v-985.358h-277.627zM5968.781 960c94.979 0 180.362-14.382 256.153-43.146s135.991-71.191 180.602-127.281c44.611-56.090 66.916-124.404 66.916-204.944h-303.642c0 41.229-18.228 74.547-54.684 99.955s-80.587 38.112-132.394 38.112c-74.832 0-131.434-19.895-169.809-59.685s-57.563-96.119-57.563-168.989v-92.045c0-72.869 19.187-129.198 57.563-168.989s94.978-59.685 169.809-59.685c51.806 0 95.937 12.225 132.394 36.674s54.684 55.85 54.684 94.202h-224.494v201.348h528.136v-552.27h-164.053l-31.659 97.798c-90.182-76.704-208.184-115.056-354.010-115.056-164.054 0-287.332 42.906-369.839 128.719s-123.759 213.572-123.759 383.281c0 167.791 46.769 295.071 140.309 381.843s226.652 130.157 399.34 130.157z" />
<glyph unicode="&#xe934;" horiz-adv-x="613" d="M212.405 814.458c-10.242-26.268-0.992-88.574 16.696-90.872 7.054-0.917 21.094 5.174 34.827 15.899l-1.253-66.74 54.95 6.747-29.703 85.526c9.035 13.633 14.318 29.63 11.045 46.427-9.432 48.396-76.32 29.282-86.563 3.014z" />
<glyph unicode="&#xe935;" horiz-adv-x="613" d="M240.238 846.701c7.097 2.073 26.497 5.28 30.093 5.721 2.298 0.282 4.853 0.065 5.956 2.334 0.903 1.858 0.137 4.72 0.225 6.759 0.101 2.368 0.369 4.727 0.643 7.080 0.781 6.696 2.409 13.176 5.037 19.395 4.932 11.667 13.068 21.33 24.053 27.721 12.131 7.056 26.466 10.091 40.375 10.67 14.885 0.62 28.822-2.59 43.298-5.443 13.795-2.719 27.894-2.725 41.503 1.101 13.712 3.854 23.344 12.697 34.251 21.306 11.166 8.814 24.367 15.303 38.767 15.952 13.442 0.606 26.387-3.365 38.296-9.331 11.142-5.582 20.654-12.775 26.877-23.779 6.694-11.837 8.37-25.527 1.233-37.59-10.344-17.487-32.682-24.423-51.738-26.346-11.022-1.113-22.065-0.439-32.89 1.923-14.437 3.151-27.408 9.904-41.177 14.985-6.461 2.384-13.059 4.184-19.87 5.227-6.61 1.013-13.004 1.065-18.317-3.491-5.62-4.82-10.613-9.489-17.302-12.896-6.416-3.268-13.362-5.508-20.525-6.331-13.935-1.602-28.19 1.035-42.067 2.269-11.316 1.006-23.403 1.91-34.366-1.739-4.575-1.523-11.186-4.319-12.284-9.384 29.148-1.648 44.661-35.409 39.789-62.189-2.629-14.454-26.712-33.931-37.751-27.857-6.994 3.848-3.841 10.414-1.81 14.742 3.889 8.289 4.329 18.377-5.273 22.636-8.283 3.673-15.047-8.296-15.202-8.302-2.141-0.094-21.731 7.981-36.205 21.496-12.363-2.265-15.257 5.685-13.105 12.741s19.679 17.756 29.485 20.62z" />
<glyph unicode="&#xe936;" horiz-adv-x="613" d="M382.566 486.022c-4.159-56.56-272.112-223.081-273.676-227.753-0.695-2.077 27.106-67.717 83.404-196.922l-23.423-9.069c-86.351 136.837-127.308 212.546-122.873 227.127 6.35 20.875 75.65 89.547 207.901 206.016l128.667 0.601z" />
<glyph unicode="&#xe937;" horiz-adv-x="613" d="M186.13 90.526l-38.242-13.87c-80.639 90.65-112.247 165.446-106.484 203.555 3.842 25.406 72.904 93.963 207.184 205.672h136.72c-4.665-130.985-253.024-228.113-256.346-233.695s29.37-60.25 57.167-161.662z" />
<glyph unicode="&#xe938;" horiz-adv-x="613" d="M200.255 66.625c5.149-5.921 8.331-10.553 9.548-13.897 1.417-3.895 2.835-9.815 4.252-17.76-4.535-1.65-45.288-16.483-122.26-44.499-6.986 9.308-7.208 15.626-0.667 18.951s11.954 6.149 16.236 8.469l47.971 46.243c0.74 0.714 1.919 0.692 2.633-0.048 0.011-0.011 0.022-0.023 0.033-0.035l7.173-7.834c7.409-0.639 13.094-0.238 17.056 1.204 3.367 1.225 7.559 4.356 12.577 9.391 1.452 1.457 3.809 1.461 5.266 0.009 0.063-0.063 0.123-0.127 0.181-0.194z" />
<glyph unicode="&#xe939;" horiz-adv-x="613" d="M351.756 486.022l119.366-285.511 117.318-241.375h-27.679l-302.83 526.886z" />
<glyph unicode="&#xe93a;" horiz-adv-x="613" d="M589.748-28.804c2.813-7.325 4.22-12.766 4.22-16.324 0-4.144-0.693-10.192-2.079-18.144-4.826 0-48.194 0-130.106 0-3.381 11.136-1.429 17.149 5.855 18.037s13.336 1.69 18.154 2.405l60.894 27.047c0.94 0.417 2.040-0.006 2.457-0.946 0.006-0.015 0.013-0.029 0.019-0.044l4.061-9.815c6.743-3.135 12.223-4.702 16.439-4.702 3.583 0 8.593 1.508 15.031 4.523 1.862 0.872 4.079 0.070 4.952-1.793 0.038-0.080 0.072-0.162 0.104-0.245z" />
<glyph unicode="&#xe93b;" horiz-adv-x="613" d="M577.846 9.279l-61.503-11.491c-47.554 69.657-246.571 355.273-268.391 488.234h136.92c72.869-96.117 147.645-405.934 192.974-476.743z" />
<glyph unicode="&#xe93c;" horiz-adv-x="613" d="M477.534 560.189l-45.778-15.036c57.94-81.815 88.945-125.141 93.014-129.977 9.156-10.882 4.63-33.44 3.376-45.181 17.131-1.818 7.495 22.353 29.214 19.726 19.824-2.398 37.636-12.611 53.553 6.067 1.957 2.296 2.794 8.826-5.125 11.15-19.729 5.79-49.268 17.54-54.479 22.87-7.105 7.269-31.697 50.729-73.776 130.38zM4.872 573.345c8.695-9.829 17.397-20.558 14.911-24.683s-11.534-1.020-14.156-7.552c-1.748-4.355 13.244-7.467 44.976-9.336l67.961-39.834 22.339 37.065-87.419 26.114c-16.305 12.644-31.685 21.888-46.14 27.73-4.205 0.787-11.166 0.326-2.471-9.504z" />
<glyph unicode="&#xe93d;" horiz-adv-x="613" d="M281.624 713.664l-20.214 0.952c-38.005-46.972-43.308-149.261-70.419-166.043-25.632-15.867-65.637-8.47-113.43 2.281l-10.188-32.933c47.104-39.731 140.375-66.732 173.641-40.695 53.186 41.627 51.281 166.748 40.611 236.437z" />
<glyph unicode="&#xe93e;" horiz-adv-x="613" d="M398.367 476.371c-79.384-9.747-137.776-16.917-175.179-21.509-8.005-0.983-7.91 10.718-7.467 16.672 5.12 68.707 48.375 147.403 36.653 242.872l49.56 14.099c50.018-61.84 74.595-142.52 96.432-252.133z" />
<glyph unicode="&#xe93f;" horiz-adv-x="613" d="M285.188 726.448c-26.446-159.633-26.347-263.821 0.296-312.564v0l157.688 19.362c-7.099 37.189-19.967 75.86-35.671 113.177 43.593-59.798 79.283-102.319 107.074-127.565l35.839 11.674c-41.598 143.246-123.337 242.704-245.218 298.373z" />
<glyph unicode="&#xe940;" glyph-name="contact-01" horiz-adv-x="1475" d="M1421.257 656.702c115.894-196.54 31.106-470.772-130.122-629.369-83.292-81.454-195.459-93.998-306.864-85.191-72.214 4.573-125.974 26.864-181.966 74.033-40.766 35.697-75.653 64.207-130.148 79.991-76.965 21.559-154.246 10.165-225.699-23.205-52.212-23.989-102.979-49.73-163.958-48.057-218.112 0.706-380.706 327.672-211.524 483.76 90.195 83.963 210.946 144.955 333.246 144.903 97.624 0.836 148.418 26.629 212.127 95.409 64.077 72.020 115.501 148.745 210.5 186.114 84.84 35.226 383.856 78.527 594.408-278.387z" />
<glyph unicode="&#xe941;" glyph-name="contact-02" d="M0 448c0-282.738 229.262-512 512-512s512 229.262 512 512c0 282.809-229.262 512-512 512s-512-229.191-512-512z" />
</font>
</defs>
</svg>
