<svg height="512" viewBox="0 0 512 512" width="512" xmlns="http://www.w3.org/2000/svg"><g><g><path d="m16 224a96 96 0 0 0 96 96h272a112 112 0 0 0 5.99-223.84 152.062 152.062 0 0 0 -280.69 31.88 96 96 0 0 0 -93.3 95.96z" fill="#d8d7da"/><g fill="#ffda44"><path d="m224 432h64v64h-64z"/><path d="m80 432h64v64h-64z"/><path d="m368 432h64v64h-64z"/></g></g><path d="m394.88 88.49a160.067 160.067 0 0 0 -291.68 31.88 104 104 0 0 0 8.8 207.63h136v40h-136a8 8 0 0 0 -8 8v48h-24a8 8 0 0 0 -8 8v64a8 8 0 0 0 8 8h64a8 8 0 0 0 8-8v-64a8 8 0 0 0 -8-8h-24v-40h128v40h-24a8 8 0 0 0 -8 8v64a8 8 0 0 0 8 8h64a8 8 0 0 0 8-8v-64a8 8 0 0 0 -8-8h-24v-40h128v40h-24a8 8 0 0 0 -8 8v64a8 8 0 0 0 8 8h64a8 8 0 0 0 8-8v-64a8 8 0 0 0 -8-8h-24v-48a8 8 0 0 0 -8-8h-136v-40h120a120 120 0 0 0 10.88-239.51zm-258.88 351.51v48h-48v-48zm288 0v48h-48v-48zm-144 0v48h-48v-48zm182.33-163.58a103.952 103.952 0 0 1 -63.47 34.52 105.337 105.337 0 0 1 -14.86 1.06h-272a88 88 0 0 1 -2.48-175.96 8.013 8.013 0 0 0 7.5-5.9 144.059 144.059 0 0 1 265.92-30.19 8.026 8.026 0 0 0 6.63 4.2 104 104 0 0 1 72.76 172.27z"/></g></svg>